{
.appVersion = "3151";
.formatVersion = 3;
DisplayStrings = (
"
abcdefghijklm
nopqrstuvwxyz 
0123456789
.;?!()@&$€-


 





",
"",
RSUVWXZ,
Y,
z
);
date = "2023-11-07 14:50:43 +0000";
familyName = Chuma;
fontMaster = (
{
guides = (
{
pos = (1461,-149);
},
{
locked = 1;
pos = (7,884);
},
{
locked = 1;
pos = (652,549);
},
{
locked = 1;
pos = (6,81);
},
{
locked = 1;
pos = (0,-304);
},
{
locked = 1;
pos = (-2,-44);
},
{
locked = 1;
pos = (647,263);
},
{
locked = 1;
pos = (1,481);
},
{
locked = 1;
pos = (0,435);
},
{
locked = 1;
pos = (3,704);
}
);
id = m01;
metricValues = (
{
over = 20;
pos = 900;
},
{
over = 20;
pos = 800;
},
{
over = 20;
pos = 610;
},
{
over = -20;
},
{
over = -20;
pos = -500;
},
{
}
);
name = Regular;
userData = {
GSCornerRadius = 25;
};
}
);
glyphs = (
{
glyphname = A;
lastChange = "2024-04-11 00:57:47 +0000";
layers = (
{
layerId = m01;
shapes = (
{
closed = 1;
nodes = (
(778,1,ls),
(795,1,o),
(804,11,o),
(802,27,cs),
(797,63,o),
(793,110,o),
(791,162,cs),
(787,243,o),
(780,324,o),
(765,384,cs),
(737,503,o),
(690,623,o),
(607,715,cs),
(562,765,o),
(487,820,o),
(418,820,cs),
(349,820,o),
(274,767,o),
(228,715,cs),
(145,623,o),
(97,503,o),
(69,384,cs),
(55,324,o),
(48,243,o),
(44,162,cs),
(42,110,o),
(38,63,o),
(34,27,cs),
(32,11,o),
(40,1,o),
(57,1,cs),
(384,1,ls),
(401,1,o),
(410,11,o),
(407,28,cs),
(400,67,ls),
(389,131,o),
(384,196,o),
(380,261,cs),
(371,394,o),
(373,522,o),
(391,655,cs),
(394,670,o),
(397,687,o),
(407,699,cs),
(424,722,o),
(456,717,o),
(469,693,cs),
(477,676,o),
(477,655,o),
(474,635,cs),
(447,474,o),
(431,310,o),
(438,148,cs),
(448,25,ls),
(449,10,o),
(459,1,o),
(474,1,cs)
);
},
{
closed = 1;
nodes = (
(445,427,o),
(449,420,o),
(450,412,c),
(457,515,l),
(457,506,o),
(447,497,o),
(442,489,c),
(428,473,o),
(399,473,o),
(385,491,c),
(377,502,o),
(375,513,o),
(374,525,c),
(374,526,o),
(374,528,o),
(374,529,c),
(374,385,l),
(374,386,o),
(374,396,o),
(374,396,c),
(375,408,o),
(377,420,o),
(385,430,c),
(399,449,o),
(427,450,o),
(440,433,c)
);
}
);
width = 835;
}
);
unicode = 65;
},
{
glyphname = B;
lastChange = "2024-04-11 00:58:02 +0000";
layers = (
{
layerId = m01;
shapes = (
{
closed = 1;
nodes = (
(444,135,o),
(448,114,o),
(425,102,cs),
(408,91,o),
(388,90,o),
(371,101,cs),
(337,124,o),
(321,172,o),
(307,209,cs),
(287,257,o),
(272,307,o),
(258,356,cs),
(241,429,o),
(230,503,o),
(229,580,cs),
(229,586,o),
(228,593,o),
(232,600,cs),
(235,605,o),
(242,610,o),
(248,608,cs),
(257,606,o),
(259,597,o),
(259,589,c),
(274,504,o),
(293,421,o),
(327,343,cs),
(352,279,o),
(386,220,o),
(426,164,c)
);
},
{
closed = 1;
nodes = (
(207,703,o),
(227,719,o),
(243,718,cs),
(267,717,o),
(287,699,o),
(304,685,cs),
(326,667,o),
(346,648,o),
(364,628,cs),
(390,598,o),
(413,566,o),
(431,529,cs),
(432,527,o),
(434,523,o),
(433,519,cs),
(433,516,o),
(430,511,o),
(426,510,cs),
(421,509,o),
(417,513,o),
(415,516,cs),
(388,553,o),
(358,587,o),
(322,615,cs),
(293,638,o),
(260,656,o),
(225,672,cs),
(216,676,o),
(207,681,o),
(207,691,cs)
);
},
{
closed = 1;
nodes = (
(673,437,o),
(583,467,o),
(550,474,c),
(559,482,o),
(595,495,o),
(620,535,cs),
(635,559,o),
(646,591,o),
(646,636,cs),
(646,681,o),
(631,713,o),
(609,737,cs),
(542,808,o),
(410,801,o),
(410,801,cs),
(56,801,ls),
(40,801,o),
(31,792,o),
(33,775,cs),
(43,665,o),
(43,514,o),
(43,401,cs),
(43,287,o),
(43,136,o),
(33,26,cs),
(31,9,o),
(40,0,o),
(56,0,cs),
(562,0,ls),
(594,1,o),
(679,24,o),
(722,109,cs),
(738,141,o),
(749,181,o),
(749,231,cs),
(749,289,o),
(736,332,o),
(716,364,cs)
);
}
);
width = 749;
}
);
unicode = 66;
},
{
glyphname = C;
lastChange = "2024-09-07 22:42:50 +0000";
layers = (
{
layerId = m01;
shapes = (
{
closed = 1;
nodes = (
(475,375,ls),
(460,375,o),
(450,367,o),
(449,351,cs),
(443,272,o),
(447,192,o),
(454,111,c),
(456,102,o),
(456,90,o),
(447,85,cs),
(440,81,o),
(430,84,o),
(425,90,cs),
(419,96,o),
(417,105,o),
(415,111,cs),
(393,200,o),
(383,288,o),
(380,377,cs),
(380,438,o),
(383,500,o),
(391,561,cs),
(396,608,o),
(400,668,o),
(432,705,cs),
(449,723,o),
(473,728,o),
(496,721,cs),
(504,719,o),
(512,714,o),
(518,708,c),
(530,692,o),
(523,669,o),
(517,650,cs),
(492,585,o),
(473,520,o),
(462,453,cs),
(459,436,o),
(468,426,o),
(485,426,cs),
(791,426,ls),
(807,426,o),
(817,435,o),
(815,452,cs),
(792,661,o),
(652,820,o),
(444,820,cs),
(158,820,o),
(10,633,o),
(10,399,cs),
(10,167,o),
(168,-20,o),
(444,-20,cs),
(653,-20,o),
(793,140,o),
(815,349,cs),
(817,366,o),
(807,375,o),
(791,375,cs)
);
}
);
width = 815;
}
);
unicode = 67;
},
{
glyphname = D;
lastChange = "2024-04-11 00:58:43 +0000";
layers = (
{
layerId = m01;
shapes = (
{
closed = 1;
nodes = (
(446,120,o),
(446,110,o),
(441,103,cs),
(437,97,o),
(428,92,o),
(420,94,cs),
(410,97,o),
(408,109,o),
(408,118,c),
(398,220,o),
(382,321,o),
(348,417,cs),
(323,495,o),
(285,568,o),
(242,638,cs),
(232,656,o),
(221,677,o),
(230,695,cs),
(234,702,o),
(241,708,o),
(249,712,cs),
(270,724,o),
(294,724,o),
(316,709,c),
(354,678,o),
(370,620,o),
(384,575,cs),
(403,516,o),
(418,456,o),
(430,395,cs),
(444,307,o),
(451,218,o),
(447,126,c)
);
},
{
closed = 1;
nodes = (
(46,800,ls),
(30,800,o),
(21,791,o),
(22,774,cs),
(32,663,o),
(32,512,o),
(32,399,cs),
(32,287,o),
(32,135,o),
(23,26,cs),
(21,9,o),
(30,0,o),
(46,0,cs),
(393,0,ls),
(590,0,o),
(767,178,o),
(767,401,cs),
(767,622,o),
(568,800,o),
(371,800,cs)
);
}
);
width = 767;
}
);
unicode = 68;
},
{
glyphname = E;
lastChange = "2024-04-11 00:59:21 +0000";
layers = (
{
layerId = m01;
shapes = (
{
closed = 1;
nodes = (
(673,779,ls),
(673,795,o),
(664,804,o),
(648,803,cs),
(473,800,o),
(153,799,o),
(55,801,cs),
(39,801,o),
(30,794,o),
(30,777,cs),
(31,624,l),
(40,484,o),
(74,412,o),
(209,388,c),
(74,363,o),
(40,292,o),
(31,151,c),
(30,24,ls),
(30,8,o),
(39,-1,o),
(56,-1,cs),
(153,2,o),
(473,0,o),
(648,-1,cs),
(664,-1,o),
(673,8,o),
(673,24,cs),
(673,196,ls),
(673,212,o),
(663,221,o),
(647,220,cs),
(627,219,ls),
(480,207,o),
(335,172,o),
(194,129,cs),
(177,124,o),
(158,121,o),
(141,127,cs),
(118,135,o),
(110,163,o),
(128,181,cs),
(138,191,o),
(152,197,o),
(166,200,cs),
(284,233,o),
(398,250,o),
(518,258,cs),
(562,261,o),
(605,263,o),
(648,264,cs),
(664,264,o),
(673,273,o),
(673,289,cs),
(673,487,ls),
(673,503,o),
(664,512,o),
(648,512,cs),
(605,512,o),
(562,513,o),
(518,516,cs),
(398,525,o),
(284,543,o),
(166,575,cs),
(152,579,o),
(138,583,o),
(128,594,cs),
(110,612,o),
(118,640,o),
(141,649,cs),
(158,655,o),
(177,651,o),
(194,646,cs),
(335,603,o),
(480,569,o),
(627,556,cs),
(647,555,ls),
(663,554,o),
(673,564,o),
(673,580,cs)
);
}
);
width = 703;
}
);
unicode = 69;
},
{
glyphname = Eacute;
lastChange = "2024-04-10 23:42:32 +0000";
layers = (
{
layerId = m01;
shapes = (
{
closed = 1;
nodes = (
(502,940,o),
(491,919,o),
(468,913,cs),
(295,865,ls),
(260,856,o),
(222,874,o),
(229,904,cs),
(245,969,o),
(340,1045,o),
(411,1059,cs),
(431,1064,o),
(449,1053,o),
(457,1036,cs),
(493,960,ls)
);
},
{
closed = 1;
nodes = (
(673,804,l),
(486,799,o),
(74,799,o),
(30,802,c),
(31,624,l),
(40,484,o),
(74,412,o),
(209,388,c),
(74,363,o),
(40,292,o),
(31,151,c),
(30,-2,l),
(74,2,o),
(485,0,o),
(673,-1,c),
(673,222,l),
(627,219,ls),
(480,207,o),
(335,172,o),
(194,129,cs),
(177,124,o),
(158,121,o),
(141,127,cs),
(118,135,o),
(110,163,o),
(128,181,cs),
(138,191,o),
(152,197,o),
(166,200,cs),
(284,233,o),
(398,250,o),
(518,258,cs),
(570,262,o),
(621,264,o),
(673,264,c),
(673,512,l),
(621,512,o),
(570,513,o),
(518,516,cs),
(398,525,o),
(284,543,o),
(166,575,cs),
(152,579,o),
(138,583,o),
(128,594,cs),
(110,612,o),
(118,640,o),
(141,649,cs),
(158,655,o),
(177,651,o),
(194,646,cs),
(335,603,o),
(480,569,o),
(627,556,cs),
(673,554,l)
);
}
);
width = 703;
}
);
unicode = 201;
},
{
glyphname = F;
lastChange = "2024-04-11 00:59:35 +0000";
layers = (
{
layerId = m01;
shapes = (
{
closed = 1;
nodes = (
(416,527,o),
(292,545,o),
(174,577,cs),
(160,581,o),
(146,585,o),
(136,596,cs),
(118,614,o),
(126,642,o),
(149,651,cs),
(166,657,o),
(185,653,o),
(202,648,cs),
(311,615,o),
(432,586,o),
(546,570,cs),
(563,567,o),
(573,576,o),
(573,593,cs),
(573,775,ls),
(573,791,o),
(564,800,o),
(548,800,cs),
(456,799,o),
(148,800,o),
(56,800,cs),
(39,800,o),
(31,791,o),
(32,774,cs),
(37,701,o),
(40,579,o),
(40,560,cs),
(40,462,o),
(105,410,o),
(217,390,c),
(86,365,o),
(50,298,o),
(40,164,c),
(39,115,o),
(36,67,o),
(32,26,cs),
(31,9,o),
(40,0,o),
(56,0,cs),
(354,0,ls),
(370,0,o),
(379,9,o),
(378,26,cs),
(374,97,o),
(372,185,o),
(371,270,cs),
(371,285,o),
(379,294,o),
(394,296,cs),
(440,302,o),
(492,307,o),
(536,310,cs),
(552,311,ls),
(567,312,o),
(576,322,o),
(576,337,cs),
(576,491,ls),
(576,507,o),
(567,516,o),
(551,517,cs),
(546,517,o),
(541,518,o),
(536,518,cs)
);
}
);
width = 606;
}
);
unicode = 70;
},
{
glyphname = G;
lastChange = "2024-04-11 00:59:46 +0000";
layers = (
{
layerId = m01;
shapes = (
{
closed = 1;
nodes = (
(414,76,o),
(405,79,o),
(400,85,cs),
(394,91,o),
(392,100,o),
(390,106,cs),
(373,175,o),
(364,250,o),
(360,321,c),
(377,335,o),
(402,330,o),
(412,312,cs),
(416,305,o),
(419,298,o),
(418,290,c),
(420,301,l),
(419,236,o),
(423,173,o),
(428,106,c),
(430,97,o),
(430,85,o),
(421,80,cs)
);
},
{
closed = 1;
nodes = (
(796,358,o),
(783,378,o),
(762,393,cs),
(718,423,o),
(657,419,o),
(607,410,cs),
(555,397,ls),
(493,379,o),
(430,349,o),
(375,397,cs),
(354,415,o),
(359,452,o),
(361,477,cs),
(363,518,o),
(366,560,o),
(372,601,cs),
(376,636,o),
(384,673,o),
(407,700,cs),
(423,718,o),
(446,723,o),
(468,716,cs),
(476,714,o),
(484,709,o),
(490,703,c),
(501,687,o),
(494,664,o),
(489,645,c),
(467,588,o),
(450,529,o),
(439,469,cs),
(435,452,o),
(444,442,o),
(461,442,cs),
(760,442,ls),
(776,442,o),
(785,451,o),
(784,467,cs),
(772,666,o),
(613,815,o),
(409,815,cs),
(159,815,o),
(0,628,o),
(0,394,cs),
(0,210,o),
(109,46,o),
(291,-3,cs),
(358,-21,o),
(444,-28,o),
(528,-11,cs),
(637,11,o),
(758,77,o),
(798,209,cs),
(810,250,o),
(817,292,o),
(804,335,cs)
);
},
{
closed = 1;
nodes = (
(340,282,l),
(339,276,l)
);
}
);
width = 841;
}
);
unicode = 71;
},
{
glyphname = H;
lastChange = "2024-04-11 01:00:14 +0000";
layers = (
{
layerId = m01;
shapes = (
{
closed = 1;
nodes = (
(440,800,ls),
(425,800,o),
(415,792,o),
(414,776,cs),
(409,690,o),
(414,621,o),
(423,530,cs),
(425,516,o),
(424,501,o),
(416,490,cs),
(402,474,o),
(373,474,o),
(359,492,cs),
(351,503,o),
(349,514,o),
(348,526,cs),
(341,615,o),
(348,690,o),
(362,773,cs),
(364,790,o),
(356,800,o),
(339,800,cs),
(57,800,ls),
(40,800,o),
(31,791,o),
(33,774,cs),
(44,662,o),
(44,478,o),
(44,374,cs),
(44,270,o),
(44,128,o),
(33,26,cs),
(31,9,o),
(40,0,o),
(57,0,cs),
(346,0,ls),
(363,0,o),
(371,10,o),
(369,27,cs),
(354,123,o),
(331,327,o),
(348,397,c),
(349,409,o),
(351,421,o),
(359,431,cs),
(373,450,o),
(403,451,o),
(416,434,cs),
(425,423,o),
(425,408,o),
(423,393,cs),
(413,290,o),
(408,132,o),
(419,23,cs),
(421,8,o),
(431,0,o),
(446,0,cs),
(714,0,ls),
(731,0,o),
(740,9,o),
(738,26,cs),
(727,138,o),
(727,322,o),
(727,426,cs),
(727,530,o),
(727,672,o),
(738,774,cs),
(740,791,o),
(731,800,o),
(714,800,cs)
);
}
);
width = 771;
}
);
unicode = 72;
},
{
glyphname = I;
lastChange = "2024-04-11 01:00:24 +0000";
layers = (
{
layerId = m01;
shapes = (
{
closed = 1;
nodes = (
(57,0,ls),
(40,0,o),
(31,9,o),
(33,26,cs),
(44,128,o),
(44,270,o),
(44,374,c),
(44,478,o),
(44,662,o),
(33,774,cs),
(31,791,o),
(40,800,o),
(57,800,cs),
(334,800,ls),
(351,800,o),
(360,791,o),
(358,774,cs),
(347,663,o),
(346,493,o),
(346,386,c),
(346,279,o),
(346,132,o),
(357,26,cs),
(359,9,o),
(350,0,o),
(333,0,cs)
);
}
);
width = 391;
}
);
unicode = 73;
},
{
glyphname = J;
lastChange = "2024-04-11 01:00:37 +0000";
layers = (
{
layerId = m01;
shapes = (
{
closed = 1;
nodes = (
(185,800,ls),
(166,800,o),
(157,792,o),
(163,774,cs),
(178,728,o),
(205,628,o),
(230,472,c),
(283,196,ls),
(288,170,o),
(310,96,o),
(292,77,cs),
(251,39,o),
(228,84,o),
(221,145,cs),
(217,175,o),
(218,209,o),
(222,239,cs),
(224,261,o),
(221,278,o),
(202,288,cs),
(134,323,o),
(3,307,o),
(3,155,cs),
(3,40,o),
(111,-14,o),
(213,-18,cs),
(285,-22,o),
(419,-7,o),
(469,51,cs),
(532,124,o),
(535,239,o),
(535,331,cs),
(535,643,ls),
(535,647,o),
(535,700,o),
(544,772,cs),
(546,790,o),
(538,800,o),
(521,800,cs)
);
}
);
width = 584;
}
);
unicode = 74;
},
{
glyphname = K;
lastChange = "2024-04-10 23:42:32 +0000";
layers = (
{
layerId = m01;
shapes = (
{
closed = 1;
nodes = (
(687,382,o),
(628,367,o),
(586,367,cs),
(497,367,o),
(468,403,o),
(427,425,c),
(497,414,o),
(611,385,o),
(685,473,cs),
(715,509,o),
(737,564,o),
(743,649,c),
(743,689,o),
(739,743,o),
(730,779,cs),
(727,794,o),
(717,800,o),
(702,800,cs),
(586,800,o),
(480,799,o),
(426,800,cs),
(410,800,o),
(401,792,o),
(400,776,cs),
(395,690,o),
(399,625,o),
(407,534,cs),
(409,519,o),
(408,505,o),
(400,493,cs),
(389,479,o),
(362,475,o),
(347,490,cs),
(338,499,o),
(339,511,o),
(338,522,cs),
(331,611,o),
(338,689,o),
(352,773,cs),
(354,790,o),
(346,800,o),
(329,800,cs),
(47,800,ls),
(30,800,o),
(21,791,o),
(23,774,cs),
(34,662,o),
(34,478,o),
(34,374,cs),
(34,270,o),
(34,128,o),
(23,26,cs),
(21,9,o),
(30,0,o),
(47,0,cs),
(336,0,ls),
(353,0,o),
(361,10,o),
(359,27,cs),
(344,123,o),
(321,322,o),
(338,392,cs),
(341,404,o),
(341,416,o),
(349,426,cs),
(357,436,o),
(368,443,o),
(381,441,cs),
(388,440,o),
(405,429,o),
(405,411,cs),
(406,331,o),
(388,205,o),
(402,127,cs),
(418,35,o),
(469,4,o),
(545,1,cs),
(599,2,o),
(678,5,o),
(726,4,cs),
(744,4,o),
(752,13,o),
(749,30,cs),
(731,154,o),
(746,302,o),
(753,403,cs),
(754,422,o),
(746,425,o),
(730,413,cs)
);
}
);
width = 775;
}
);
unicode = 75;
},
{
glyphname = L;
lastChange = "2024-04-11 01:01:06 +0000";
layers = (
{
layerId = m01;
shapes = (
{
closed = 1;
nodes = (
(580,291,ls),
(580,308,o),
(570,317,o),
(554,314,cs),
(455,299,o),
(222,255,o),
(168,237,cs),
(152,232,o),
(129,230,o),
(116,243,cs),
(101,261,o),
(146,274,o),
(167,282,cs),
(183,288,o),
(198,296,o),
(212,304,cs),
(240,321,o),
(266,342,o),
(287,367,cs),
(330,416,o),
(356,480,o),
(360,545,c),
(360,642,ls),
(362,690,o),
(365,734,o),
(369,774,cs),
(371,790,o),
(362,800,o),
(345,800,cs),
(47,800,ls),
(30,800,o),
(21,791,o),
(23,774,cs),
(30,710,o),
(32,633,o),
(35,557,cs),
(38,469,o),
(59,421,o),
(166,402,c),
(50,380,o),
(37,325,o),
(35,221,cs),
(34,154,o),
(30,83,o),
(23,26,cs),
(21,10,o),
(30,0,o),
(47,0,cs),
(557,0,ls),
(573,0,o),
(582,8,o),
(582,25,cs)
);
}
);
width = 602;
}
);
unicode = 76;
},
{
glyphname = M;
lastChange = "2024-04-11 02:08:17 +0000";
layers = (
{
layerId = m01;
shapes = (
{
closed = 1;
nodes = (
(979,162,o),
(973,691,o),
(976,792,cs),
(977,800,o),
(967,804,o),
(951,804,cs),
(771,803,l),
(616,793,o),
(537,634,o),
(510,485,c),
(483,634,o),
(404,793,o),
(249,803,c),
(69,804,ls),
(53,804,o),
(44,795,o),
(44,779,cs),
(47,652,o),
(41,158,o),
(32,26,cs),
(31,9,o),
(40,0,o),
(56,0,cs),
(306,1,ls),
(322,1,o),
(332,11,o),
(331,27,cs),
(324,145,ls),
(310,307,o),
(272,467,o),
(225,623,cs),
(219,642,o),
(215,663,o),
(222,681,cs),
(231,707,o),
(262,716,o),
(282,696,cs),
(294,685,o),
(299,669,o),
(303,654,cs),
(339,524,o),
(358,398,o),
(368,265,cs),
(372,200,o),
(374,135,o),
(373,70,cs),
(372,26,ls),
(372,9,o),
(380,1,o),
(396,1,cs),
(624,1,ls),
(640,1,o),
(650,10,o),
(649,27,cs),
(647,70,ls),
(646,135,o),
(648,200,o),
(653,265,cs),
(662,398,o),
(681,524,o),
(717,654,cs),
(721,669,o),
(727,685,o),
(738,696,cs),
(758,716,o),
(789,707,o),
(798,681,cs),
(805,663,o),
(801,642,o),
(796,623,cs),
(748,467,o),
(710,307,o),
(696,145,cs),
(689,27,ls),
(688,11,o),
(698,1,o),
(714,1,cs),
(964,-1,ls),
(980,-1,o),
(989,8,o),
(988,25,cs)
);
}
);
width = 1020;
}
);
unicode = 77;
},
{
color = 0;
glyphname = N;
lastChange = "2024-04-11 01:01:48 +0000";
layers = (
{
layerId = m01;
shapes = (
{
closed = 1;
nodes = (
(326,0,ls),
(341,0,o),
(349,8,o),
(352,23,cs),
(355,39,o),
(358,60,o),
(358,78,cs),
(358,120,o),
(346,162,o),
(331,202,cs),
(301,277,o),
(269,354,o),
(239,431,cs),
(224,471,o),
(210,510,o),
(197,551,cs),
(186,584,o),
(164,631,o),
(172,667,cs),
(177,693,o),
(203,697,o),
(221,677,cs),
(234,664,o),
(241,644,o),
(246,625,cs),
(288,450,o),
(381,198,o),
(440,20,cs),
(445,6,o),
(455,0,o),
(469,0,cs),
(804,0,ls),
(821,0,o),
(829,10,o),
(827,26,cs),
(813,136,o),
(805,288,o),
(805,401,cs),
(805,510,o),
(800,664,o),
(811,774,cs),
(813,791,o),
(804,800,o),
(787,800,cs),
(546,800,ls),
(531,800,o),
(521,793,o),
(519,778,cs),
(517,762,o),
(514,741,o),
(514,723,cs),
(514,683,o),
(521,642,o),
(538,601,cs),
(585,491,o),
(610,450,o),
(644,335,cs),
(656,292,o),
(667,250,o),
(677,206,cs),
(681,191,o),
(684,174,o),
(680,160,cs),
(674,134,o),
(648,131,o),
(631,151,cs),
(618,165,o),
(613,185,o),
(608,204,cs),
(552,424,o),
(496,572,o),
(438,780,cs),
(434,794,o),
(424,801,o),
(410,801,cs),
(70,801,ls),
(53,801,o),
(45,791,o),
(47,775,cs),
(59,665,o),
(54,514,o),
(54,401,cs),
(54,292,o),
(47,137,o),
(34,26,cs),
(31,10,o),
(40,0,o),
(57,0,cs)
);
}
);
width = 861;
}
);
unicode = 78;
},
{
glyphname = O;
lastChange = "2024-04-10 23:42:32 +0000";
layers = (
{
layerId = m01;
shapes = (
{
closed = 1;
nodes = (
(488,573,o),
(466,495,o),
(456,414,cs),
(441,314,o),
(445,213,o),
(454,111,cs),
(456,102,o),
(456,90,o),
(447,85,cs),
(440,81,o),
(430,84,o),
(425,90,cs),
(419,96,o),
(417,105,o),
(415,111,cs),
(393,200,o),
(383,288,o),
(380,377,cs),
(380,438,o),
(383,500,o),
(391,561,cs),
(396,608,o),
(400,668,o),
(432,705,cs),
(449,723,o),
(473,728,o),
(496,721,cs),
(504,719,o),
(512,714,o),
(518,708,c),
(530,692,o),
(523,669,o),
(517,650,cs)
);
},
{
closed = 1;
nodes = (
(178,820,o),
(10,633,o),
(10,399,cs),
(10,167,o),
(178,-20,o),
(444,-20,cs),
(710,-20,o),
(878,167,o),
(878,399,cs),
(878,633,o),
(710,820,o),
(444,820,cs)
);
}
);
width = 888;
}
);
unicode = 79;
},
{
glyphname = Q;
lastChange = "2024-04-11 01:01:57 +0000";
layers = (
{
layerId = m01;
shapes = (
{
closed = 1;
nodes = (
(657,43,o),
(491,-8,o),
(499,-7,c),
(441,-52,ls),
(386,-95,o),
(429,-232,o),
(465,-232,cs),
(840,-232,ls),
(866,-232,o),
(880,-218,o),
(880,-112,cs),
(880,-13,ls),
(880,15,o),
(863,28,o),
(836,23,cs),
(517,-38,l),
(622,23,ls)
);
},
{
closed = 1;
nodes = (
(508,573,o),
(486,495,o),
(476,414,cs),
(461,314,o),
(465,213,o),
(474,111,cs),
(476,102,o),
(476,90,o),
(467,85,cs),
(460,81,o),
(450,84,o),
(445,90,cs),
(439,96,o),
(437,105,o),
(435,111,cs),
(413,200,o),
(403,288,o),
(400,377,cs),
(400,438,o),
(403,500,o),
(411,561,cs),
(416,608,o),
(420,668,o),
(452,705,cs),
(469,723,o),
(493,728,o),
(516,721,cs),
(524,719,o),
(532,714,o),
(538,708,c),
(550,692,o),
(543,669,o),
(537,650,cs)
);
},
{
closed = 1;
nodes = (
(198,820,o),
(50,633,o),
(50,399,cs),
(50,167,o),
(198,-20,o),
(464,-20,cs),
(730,-20,o),
(878,167,o),
(878,399,cs),
(878,633,o),
(730,820,o),
(464,820,cs)
);
}
);
width = 928;
}
);
unicode = 81;
},
{
glyphname = R;
lastChange = "2024-04-11 01:02:47 +0000";
layers = (
{
layerId = m01;
shapes = (
{
closed = 1;
nodes = (
(428,515,o),
(425,511,o),
(421,510,cs),
(415,508,o),
(412,512,o),
(410,516,c),
(382,552,o),
(353,587,o),
(317,614,cs),
(288,638,o),
(255,655,o),
(219,671,cs),
(210,675,o),
(201,681,o),
(201,690,cs),
(201,694,o),
(203,698,o),
(206,702,cs),
(213,712,o),
(225,718,o),
(238,718,cs),
(262,716,o),
(282,698,o),
(298,684,cs),
(320,667,o),
(340,648,o),
(359,628,cs),
(385,597,o),
(408,565,o),
(426,529,cs),
(427,526,o),
(429,523,o),
(428,519,cs)
);
},
{
closed = 1;
nodes = (
(627,393,o),
(542,391,o),
(495,412,cs),
(478,419,o),
(461,428,o),
(448,440,c),
(456,444,o),
(482,454,o),
(510,468,c),
(588,501,o),
(644,544,o),
(644,635,cs),
(644,689,o),
(617,737,o),
(570,764,cs),
(500,806,o),
(405,801,o),
(405,801,cs),
(51,801,ls),
(35,801,o),
(26,792,o),
(28,775,cs),
(38,665,o),
(38,514,o),
(38,400,cs),
(38,287,o),
(38,136,o),
(28,26,cs),
(26,9,o),
(35,0,o),
(51,0,cs),
(402,0,ls),
(423,0,o),
(429,14,o),
(416,30,cs),
(375,83,o),
(338,138,o),
(309,197,cs),
(273,270,o),
(252,349,o),
(238,429,cs),
(230,479,o),
(225,529,o),
(223,580,c),
(224,585,o),
(223,593,o),
(227,599,c),
(229,605,o),
(237,609,o),
(243,608,cs),
(251,606,o),
(254,596,o),
(254,588,c),
(268,513,o),
(284,439,o),
(311,368,cs),
(327,321,o),
(345,274,o),
(366,228,cs),
(386,183,o),
(409,139,o),
(435,96,cs),
(458,58,o),
(485,21,o),
(528,5,cs),
(564,-9,o),
(606,-4,o),
(643,-3,cs),
(649,-3,o),
(711,0,o),
(711,10,cs),
(703,138,o),
(705,293,o),
(710,400,cs),
(711,418,o),
(702,423,o),
(685,416,cs)
);
}
);
width = 737;
}
);
unicode = 82;
},
{
glyphname = S;
lastChange = "2024-04-10 23:42:32 +0000";
layers = (
{
layerId = m01;
shapes = (
{
closed = 1;
nodes = (
(730,244,o),
(714,338,o),
(657,424,cs),
(608,493,o),
(554,531,o),
(491,558,cs),
(424,587,o),
(347,606,o),
(262,641,cs),
(243,649,o),
(236,657,o),
(236,669,cs),
(236,685,o),
(251,691,o),
(268,694,cs),
(298,697,o),
(340,689,o),
(358,685,cs),
(470,662,o),
(550,589,o),
(622,504,cs),
(627,498,o),
(627,500,o),
(634,500,cs),
(723,500,o),
(723,650,o),
(674,713,cs),
(604,799,o),
(480,819,o),
(374,819,cs),
(245,819,o),
(103,779,o),
(50,649,cs),
(-8,506,o),
(67,349,o),
(193,273,cs),
(237,246,o),
(285,225,o),
(334,210,cs),
(361,201,o),
(390,195,o),
(417,185,cs),
(440,177,o),
(465,174,o),
(485,158,cs),
(510,137,o),
(499,110,o),
(466,107,cs),
(417,103,o),
(367,117,o),
(322,140,cs),
(251,177,o),
(193,239,o),
(132,291,cs),
(89,328,o),
(45,259,o),
(36,221,cs),
(25,177,o),
(32,123,o),
(61,87,cs),
(133,2,o),
(257,-17,o),
(361,-17,cs),
(486,-17,o),
(620,17,o),
(678,135,cs)
);
}
);
width = 740;
}
);
unicode = 83;
},
{
glyphname = T;
lastChange = "2024-04-11 01:02:58 +0000";
layers = (
{
layerId = m01;
shapes = (
{
closed = 1;
nodes = (
(2,513,ls),
(2,496,o),
(12,487,o),
(28,490,cs),
(127,505,o),
(360,549,o),
(414,567,cs),
(430,572,o),
(453,574,o),
(466,561,cs),
(481,543,o),
(436,530,o),
(415,522,cs),
(399,516,o),
(384,508,o),
(370,500,cs),
(342,483,o),
(316,462,o),
(295,437,cs),
(252,388,o),
(226,324,o),
(222,259,c),
(222,162,ls),
(220,114,o),
(217,67,o),
(213,26,cs),
(211,9,o),
(220,0,o),
(237,0,cs),
(535,0,ls),
(552,0,o),
(561,9,o),
(559,26,cs),
(552,91,o),
(550,171,o),
(547,247,cs),
(544,335,o),
(523,383,o),
(416,402,c),
(532,424,o),
(545,479,o),
(547,583,cs),
(548,650,o),
(552,721,o),
(559,778,cs),
(561,794,o),
(552,804,o),
(535,804,cs),
(25,804,ls),
(9,804,o),
(0,796,o),
(0,779,cs)
);
}
);
width = 592;
}
);
unicode = 84;
},
{
glyphname = U;
lastChange = "2024-04-11 01:03:05 +0000";
layers = (
{
layerId = m01;
shapes = (
{
closed = 1;
nodes = (
(432,800,ls),
(415,800,o),
(407,790,o),
(410,773,cs),
(416,736,ls),
(425,672,o),
(432,607,o),
(436,542,cs),
(445,409,o),
(443,281,o),
(424,149,cs),
(422,133,o),
(419,117,o),
(409,104,cs),
(391,81,o),
(360,86,o),
(347,111,cs),
(338,128,o),
(339,149,o),
(342,168,cs),
(369,329,o),
(385,493,o),
(377,655,cs),
(377,665,o),
(373,719,o),
(368,776,cs),
(367,792,o),
(357,800,o),
(342,800,cs),
(56,800,ls),
(40,800,o),
(31,791,o),
(33,774,cs),
(44,647,o),
(44,375,o),
(44,264,c),
(74,16,o),
(263,-16,o),
(400,-16,cs),
(536,-16,o),
(725,16,o),
(755,264,c),
(755,375,o),
(755,647,o),
(769,774,cs),
(770,791,o),
(762,800,o),
(745,800,cs)
);
}
);
width = 802;
}
);
unicode = 85;
},
{
glyphname = V;
lastChange = "2024-04-11 01:03:13 +0000";
layers = (
{
layerId = m01;
shapes = (
{
closed = 1;
nodes = (
(431,800,ls),
(414,800,o),
(405,790,o),
(408,772,cs),
(412,752,o),
(414,737,o),
(414,733,c),
(424,669,o),
(431,604,o),
(435,539,cs),
(443,406,o),
(442,278,o),
(423,145,cs),
(421,130,o),
(418,113,o),
(408,101,cs),
(390,78,o),
(359,83,o),
(346,107,cs),
(337,124,o),
(338,146,o),
(341,165,cs),
(367,326,o),
(384,490,o),
(376,652,cs),
(376,662,o),
(372,718,o),
(366,776,cs),
(365,792,o),
(355,800,o),
(340,800,cs),
(37,800,ls),
(20,800,o),
(11,790,o),
(13,774,cs),
(17,738,o),
(22,690,o),
(24,639,cs),
(28,558,o),
(35,476,o),
(49,416,cs),
(77,297,o),
(124,177,o),
(207,85,cs),
(252,35,o),
(327,-20,o),
(396,-20,cs),
(465,-20,o),
(540,33,o),
(586,85,cs),
(669,177,o),
(717,297,o),
(745,416,cs),
(760,476,o),
(767,558,o),
(771,639,cs),
(773,690,o),
(777,738,o),
(781,774,cs),
(783,790,o),
(775,800,o),
(758,800,cs)
);
}
);
width = 795;
}
);
unicode = 86;
},
{
glyphname = W;
lastChange = "2024-04-11 01:03:28 +0000";
layers = (
{
annotations = (
{
pos = (439.695,661.312);
type = Text;
},
{
pos = (295,893);
type = Text;
}
);
layerId = m01;
shapes = (
{
closed = 1;
nodes = (
(749,802,ls),
(733,802,o),
(723,792,o),
(724,776,cs),
(731,658,ls),
(745,496,o),
(783,336,o),
(831,180,cs),
(836,161,o),
(840,140,o),
(833,122,cs),
(824,96,o),
(793,87,o),
(773,107,cs),
(762,118,o),
(756,134,o),
(752,149,cs),
(716,279,o),
(697,405,o),
(688,538,cs),
(683,603,o),
(681,668,o),
(682,733,cs),
(684,776,ls),
(685,793,o),
(675,802,o),
(659,802,cs),
(431,802,ls),
(415,802,o),
(407,794,o),
(407,777,cs),
(408,733,ls),
(409,668,o),
(407,603,o),
(403,538,cs),
(393,405,o),
(374,279,o),
(338,149,cs),
(334,134,o),
(329,118,o),
(317,107,cs),
(297,87,o),
(266,96,o),
(257,122,cs),
(250,140,o),
(254,161,o),
(260,180,cs),
(307,336,o),
(345,496,o),
(359,658,cs),
(366,776,ls),
(367,792,o),
(357,802,o),
(341,802,cs),
(52,803,ls),
(35,803,o),
(26,793,o),
(28,777,cs),
(44,644,o),
(94,149,o),
(98,24,cs),
(99,8,o),
(107,-1,o),
(123,-1,cs),
(284,0,l),
(439,10,o),
(518,169,o),
(545,318,c),
(572,169,o),
(651,10,o),
(806,0,c),
(967,-1,ls),
(983,-1,o),
(991,8,o),
(992,24,cs),
(996,149,o),
(1046,645,o),
(1062,778,cs),
(1064,794,o),
(1055,804,o),
(1038,804,cs)
);
}
);
width = 1090;
}
);
unicode = 87;
},
{
glyphname = X;
lastChange = "2024-04-11 01:03:37 +0000";
layers = (
{
layerId = m01;
shapes = (
{
closed = 1;
nodes = (
(855,771,cs),
(853,790,o),
(843,800,o),
(828,800,cs),
(500,800,ls),
(485,800,o),
(475,792,o),
(474,776,cs),
(469,687,o),
(474,597,o),
(483,506,cs),
(485,492,o),
(484,477,o),
(476,466,cs),
(462,450,o),
(433,450,o),
(419,468,cs),
(411,479,o),
(409,490,o),
(408,502,cs),
(401,592,o),
(408,686,o),
(422,773,cs),
(424,790,o),
(416,800,o),
(399,800,cs),
(60,800,ls),
(45,800,o),
(35,792,o),
(33,777,cs),
(8,591,o),
(111,447,o),
(341,400,c),
(111,353,o),
(8,209,o),
(33,23,cs),
(35,8,o),
(45,0,o),
(60,0,cs),
(406,0,ls),
(423,0,o),
(431,10,o),
(428,28,cs),
(404,167,o),
(398,218,o),
(408,337,cs),
(409,349,o),
(411,361,o),
(419,371,cs),
(433,390,o),
(462,390,o),
(476,374,cs),
(484,362,o),
(485,348,o),
(483,333,cs),
(473,230,o),
(468,125,o),
(479,23,cs),
(481,8,o),
(491,0,o),
(506,0,cs),
(828,0,ls),
(843,0,o),
(852,8,o),
(854,24,cs),
(878,251,o),
(731,366,o),
(546,400,c),
(728,434,o),
(876,549,o)
);
}
);
width = 887;
}
);
unicode = 88;
},
{
glyphname = Z;
lastChange = "2024-04-11 01:11:18 +0000";
layers = (
{
layerId = m01;
shapes = (
{
closed = 1;
nodes = (
(393,246,o),
(412,276,o),
(433,304,cs),
(460,343,o),
(490,379,o),
(525,414,cs),
(574,466,o),
(628,519,o),
(670,578,cs),
(699,622,o),
(725,670,o),
(736,725,cs),
(737,731,o),
(746,800,o),
(742,800,cs),
(51,801,ls),
(37,801,o),
(28,792,o),
(28,781,cs),
(28,519,ls),
(28,507,o),
(38,497,o),
(54,499,cs),
(118,509,o),
(173,535,o),
(221,570,cs),
(275,607,o),
(317,654,o),
(349,700,c),
(354,706,o),
(365,700,o),
(362,692,cs),
(272,535,o),
(119,420,o),
(51,255,c),
(20,190,o),
(23,100,o),
(28,27,cs),
(28,11,o),
(40,0,o),
(55,0,cs),
(714,0,ls),
(722,0,o),
(728,5,o),
(728,14,cs),
(728,428,ls),
(728,438,o),
(721,444,o),
(711,443,c),
(645,430,o),
(592,400,o),
(547,360,cs),
(489,308,o),
(446,241,o),
(409,173,cs),
(397,151,o),
(388,133,o),
(378,110,cs),
(371,96,o),
(360,78,o),
(340,79,cs),
(317,81,o),
(320,105,o),
(328,119,cs),
(341,152,o),
(358,184,o),
(376,215,cs)
);
}
);
width = 768;
}
);
unicode = 90;
},
{
glyphname = a;
lastChange = "2024-09-07 22:40:05 +0000";
layers = (
{
annotations = (
{
pos = (353.383,467.531);
type = Text;
}
);
layerId = m01;
shapes = (
{
closed = 1;
nodes = (
(303,124,o),
(295,156,o),
(292,180,cs),
(278,275,o),
(348,361,o),
(431,399,cs),
(438,403,o),
(440,394,o),
(436,389,cs),
(379,313,o),
(315,230,o),
(347,128,c),
(347,119,o),
(336,113,o),
(328,116,cs)
);
},
{
closed = 1;
nodes = (
(52,32,o),
(105,1,o),
(161,-9,cs),
(227,-22,o),
(298,-4,o),
(340,52,c),
(346,19,ls),
(348,8,o),
(358,-1,o),
(370,-1,cs),
(605,-1,ls),
(623,-1,o),
(634,13,o),
(632,31,cs),
(617,125,o),
(629,247,o),
(627,356,cs),
(626,440,o),
(616,516,o),
(579,564,cs),
(531,620,o),
(411,632,o),
(347,632,cs),
(232,636,o),
(33,632,o),
(55,475,cs),
(74,339,o),
(320,403,o),
(329,459,cs),
(331,472,o),
(325,496,o),
(326,510,cs),
(326,535,o),
(334,596,o),
(363,597,cs),
(410,598,o),
(404,536,o),
(396,508,cs),
(384,459,o),
(351,425,o),
(301,411,cs),
(215,386,o),
(117,351,o),
(60,290,cs),
(13,239,o),
(-8,171,o),
(30,83,cs)
);
}
);
width = 642;
}
);
unicode = 97;
},
{
color = 6;
glyphname = b;
lastChange = "2024-09-07 22:50:32 +0000";
layers = (
{
layerId = m01;
shapes = (
{
closed = 1;
nodes = (
(391,440,o),
(376,366,o),
(369,291,cs),
(363,222,o),
(364,151,o),
(373,72,cs),
(374,64,o),
(367,56,o),
(359,56,cs),
(352,56,o),
(346,61,o),
(345,68,cs),
(328,154,o),
(319,206,o),
(317,287,cs),
(318,348,o),
(319,401,o),
(326,453,cs),
(329,473,o),
(333,517,o),
(348,546,cs),
(357,565,o),
(371,577,o),
(393,572,cs),
(416,567,o),
(421,545,o),
(416,522,c)
);
},
{
closed = 1;
nodes = (
(275,0,ls),
(285,0,o),
(295,6,o),
(298,17,cs),
(314,71,l),
(315,36,o),
(327,-12,o),
(432,-12,cs),
(571,-12,o),
(676,35,o),
(676,291,cs),
(676,546,o),
(571,619,o),
(431,619,cs),
(349,619,o),
(325,596,o),
(318,568,c),
(318,658,o),
(320,764,o),
(328,855,cs),
(330,871,o),
(318,884,o),
(302,884,cs),
(54,884,ls),
(38,884,o),
(26,872,o),
(28,855,cs),
(39,732,o),
(39,541,o),
(39,425,cs),
(39,296,ls),
(39,217,o),
(39,111,o),
(29,30,cs),
(27,13,o),
(39,0,o),
(56,0,cs)
);
}
);
width = 701;
}
);
unicode = 98;
},
{
glyphname = c;
lastChange = "2024-09-07 22:48:28 +0000";
layers = (
{
layerId = m01;
shapes = (
{
closed = 1;
nodes = (
(346,291,ls),
(333,291,o),
(322,282,o),
(321,268,cs),
(317,205,o),
(319,140,o),
(327,68,cs),
(328,60,o),
(321,52,o),
(313,52,cs),
(306,52,o),
(300,57,o),
(299,64,cs),
(282,150,o),
(273,202,o),
(271,283,cs),
(271,291,ls),
(272,344,o),
(273,397,o),
(280,449,cs),
(283,469,o),
(287,513,o),
(302,542,cs),
(311,561,o),
(325,573,o),
(347,568,cs),
(356,566,o),
(363,561,o),
(367,554,cs),
(373,544,o),
(373,531,o),
(370,518,cs),
(353,462,o),
(341,410,o),
(332,359,cs),
(329,342,o),
(342,328,o),
(359,328,cs),
(591,328,ls),
(606,328,o),
(618,340,o),
(617,355,cs),
(607,514,o),
(545,624,o),
(311,624,cs),
(64,624,o),
(0,492,o),
(0,312,cs),
(0,132,o),
(63,-17,o),
(311,-17,cs),
(536,-17,o),
(607,104,o),
(617,264,cs),
(618,280,o),
(606,291,o),
(591,291,cs)
);
}
);
width = 619;
}
);
unicode = 99;
},
{
color = 6;
glyphname = d;
lastChange = "2024-09-07 22:51:02 +0000";
layers = (
{
layerId = m01;
shapes = (
{
closed = 1;
nodes = (
(280,545,o),
(285,567,o),
(308,572,cs),
(330,577,o),
(344,565,o),
(353,546,cs),
(368,517,o),
(372,473,o),
(375,453,cs),
(382,401,o),
(383,348,o),
(384,287,cs),
(382,206,o),
(373,154,o),
(356,68,cs),
(355,61,o),
(349,56,o),
(342,56,cs),
(334,56,o),
(327,64,o),
(328,72,cs),
(337,150,o),
(338,219,o),
(333,287,cs),
(326,364,o),
(310,439,o),
(285,522,c)
);
},
{
closed = 1;
nodes = (
(662,111,o),
(662,217,o),
(662,296,cs),
(662,425,ls),
(662,541,o),
(662,732,o),
(673,855,cs),
(675,872,o),
(663,884,o),
(647,884,cs),
(399,884,ls),
(383,884,o),
(371,871,o),
(373,855,cs),
(381,764,o),
(383,658,o),
(383,568,c),
(376,596,o),
(352,619,o),
(270,619,cs),
(130,619,o),
(25,546,o),
(25,291,cs),
(25,35,o),
(130,-12,o),
(269,-12,cs),
(374,-12,o),
(386,36,o),
(387,71,c),
(403,17,ls),
(406,6,o),
(416,0,o),
(426,0,cs),
(645,0,ls),
(662,0,o),
(674,13,o),
(672,30,cs)
);
}
);
width = 701;
}
);
unicode = 100;
},
{
color = 0;
glyphname = e;
lastChange = "2024-09-03 19:49:38 +0000";
layers = (
{
guides = (
{
pos = (552,60);
}
);
layerId = m01;
shapes = (
{
closed = 1;
nodes = (
(296,540,o),
(298,563,o),
(314,578,cs),
(321,585,o),
(332,587,o),
(343,584,cs),
(347,583,o),
(350,582,o),
(353,579,cs),
(359,573,o),
(356,564,o),
(352,556,cs),
(339,526,o),
(329,494,o),
(324,463,cs),
(317,424,o),
(319,384,o),
(324,344,cs),
(324,339,o),
(324,335,o),
(320,333,cs),
(317,332,o),
(311,333,o),
(309,335,cs),
(307,338,o),
(306,340,o),
(305,344,cs),
(295,378,o),
(290,414,o),
(289,448,cs),
(289,472,o),
(290,497,o),
(294,521,cs)
);
},
{
closed = 1;
nodes = (
(10,123,o),
(41,-19,o),
(321,-19,cs),
(381,-19,o),
(457,-14,o),
(519,-4,cs),
(532,-3,o),
(542,8,o),
(540,20,cs),
(528,111,o),
(527,176,o),
(540,236,cs),
(544,256,o),
(526,265,o),
(506,258,cs),
(487,252,o),
(461,247,o),
(426,247,cs),
(352,247,o),
(318,265,o),
(300,301,c),
(322,294,o),
(350,289,o),
(381,289,cs),
(525,289,o),
(548,347,o),
(548,448,cs),
(548,586,o),
(475,623,o),
(305,623,cs),
(39,623,o),
(10,487,o),
(10,329,cs)
);
}
);
width = 558;
}
);
unicode = 101;
},
{
glyphname = eacute;
lastChange = "2024-09-03 20:12:57 +0000";
layers = (
{
layerId = m01;
shapes = (
{
closed = 1;
nodes = (
(481,730,o),
(470,709,o),
(447,703,cs),
(274,655,ls),
(239,645,o),
(201,664,o),
(208,694,cs),
(224,759,o),
(319,835,o),
(390,849,cs),
(410,854,o),
(428,843,o),
(436,826,cs),
(472,750,ls)
);
},
{
closed = 1;
nodes = (
(296,540,o),
(298,563,o),
(314,578,cs),
(321,585,o),
(332,587,o),
(343,584,cs),
(347,583,o),
(350,582,o),
(353,579,cs),
(359,573,o),
(356,564,o),
(352,556,cs),
(339,526,o),
(329,494,o),
(324,463,cs),
(317,424,o),
(319,384,o),
(324,344,cs),
(324,339,o),
(324,335,o),
(320,333,cs),
(317,332,o),
(311,333,o),
(309,335,cs),
(307,338,o),
(306,340,o),
(305,344,cs),
(295,378,o),
(290,414,o),
(289,448,cs),
(289,472,o),
(290,497,o),
(294,521,cs)
);
},
{
closed = 1;
nodes = (
(10,123,o),
(41,-19,o),
(321,-19,cs),
(381,-19,o),
(457,-14,o),
(519,-4,cs),
(532,-3,o),
(542,8,o),
(540,20,cs),
(528,111,o),
(527,176,o),
(540,236,cs),
(544,256,o),
(526,265,o),
(506,258,cs),
(487,252,o),
(461,247,o),
(426,247,cs),
(352,247,o),
(318,265,o),
(300,301,c),
(322,294,o),
(350,289,o),
(381,289,cs),
(525,289,o),
(548,347,o),
(548,448,cs),
(548,586,o),
(475,623,o),
(305,623,cs),
(39,623,o),
(10,487,o),
(10,329,cs)
);
}
);
width = 558;
}
);
unicode = 233;
},
{
glyphname = f;
lastChange = "2024-09-08 17:32:53 +0000";
layers = (
{
layerId = m01;
shapes = (
{
closed = 1;
nodes = (
(30,568,ls),
(19,568,o),
(10,577,o),
(10,588,cs),
(10,593,ls),
(10,604,o),
(19,613,o),
(30,613,cs),
(61,613,l),
(61,646,ls),
(61,862,o),
(124,912,o),
(260,912,cs),
(396,912,o),
(471,873,o),
(471,766,cs),
(471,646,o),
(353,638,o),
(282,665,cs),
(265,671,o),
(259,689,o),
(261,708,cs),
(271,775,o),
(262,887,o),
(239,887,cs),
(223,887,o),
(210,857,o),
(210,788,cs),
(210,664,o),
(258,613,o),
(352,613,cs),
(395,613,ls),
(406,613,o),
(415,604,o),
(415,593,cs),
(415,588,ls),
(415,577,o),
(406,568,o),
(395,568,cs),
(352,568,l),
(352,466,ls),
(352,335,o),
(352,159,o),
(363,30,cs),
(365,13,o),
(352,0,o),
(335,0,cs),
(78,0,ls),
(61,0,o),
(48,13,o),
(50,29,cs),
(61,162,o),
(61,346,o),
(61,481,cs),
(61,568,l)
);
}
);
width = 421;
}
);
unicode = 102;
},
{
color = 0;
glyphname = g;
lastChange = "2024-09-08 22:52:06 +0000";
layers = (
{
annotations = (
{
pos = (236.984,548.737);
type = Text;
}
);
layerId = m01;
shapes = (
{
closed = 1;
nodes = (
(318,86,o),
(309,78,o),
(301,79,cs),
(295,80,o),
(290,87,o),
(292,101,cs),
(299,177,o),
(302,253,o),
(291,328,cs),
(283,388,o),
(267,447,o),
(247,504,cs),
(235,537,o),
(246,555,o),
(263,560,cs),
(278,564,o),
(296,558,o),
(308,546,cs),
(333,518,o),
(336,473,o),
(339,438,cs),
(345,392,o),
(347,345,o),
(347,300,cs),
(345,233,o),
(337,167,o),
(321,101,cs)
);
},
{
closed = 1;
nodes = (
(10,235,o),
(12,153,o),
(49,85,cs),
(66,53,o),
(107,18,o),
(141,1,cs),
(203,-31,o),
(265,-28,o),
(333,-16,cs),
(392,-5,o),
(463,28,o),
(498,82,cs),
(501,86,o),
(508,84,o),
(507,79,cs),
(498,3,o),
(444,-53,o),
(363,-63,cs),
(295,-74,o),
(211,-52,o),
(157,-15,cs),
(107,17,o),
(92,11,o),
(60,-39,cs),
(48,-59,o),
(40,-83,o),
(39,-106,cs),
(36,-197,o),
(162,-232,o),
(232,-240,cs),
(372,-255,o),
(501,-186,o),
(574,-67,cs),
(625,17,o),
(622,120,o),
(622,215,cs),
(621,326,o),
(615,437,o),
(624,548,cs),
(627,584,ls),
(628,600,o),
(621,610,o),
(604,610,cs),
(388,610,ls),
(374,610,o),
(364,603,o),
(361,589,c),
(345,539,l),
(344,574,o),
(332,623,o),
(228,623,cs),
(91,623,o),
(10,567,o),
(10,310,cs)
);
}
);
width = 637;
}
);
unicode = 103;
},
{
glyphname = h;
lastChange = "2024-09-07 22:02:32 +0000";
layers = (
{
layerId = m01;
shapes = (
{
closed = 1;
nodes = (
(295,148,o),
(291,259,o),
(306,365,cs),
(309,385,o),
(313,428,o),
(327,457,cs),
(337,475,o),
(351,488,o),
(371,483,cs),
(395,476,o),
(401,457,o),
(394,433,cs),
(351,289,o),
(335,171,o),
(349,22,cs),
(350,9,o),
(360,0,o),
(373,0,cs),
(605,0,ls),
(621,0,o),
(632,12,o),
(631,28,cs),
(623,145,o),
(623,295,o),
(623,384,cs),
(623,518,o),
(618,631,o),
(463,631,cs),
(366,631,o),
(329,560,o),
(315,502,c),
(315,617,o),
(318,754,o),
(327,856,cs),
(329,873,o),
(317,885,o),
(301,885,cs),
(62,885,ls),
(46,885,o),
(34,873,o),
(35,857,cs),
(45,730,o),
(45,542,o),
(45,419,cs),
(45,298,o),
(45,144,o),
(36,28,cs),
(34,12,o),
(46,0,o),
(62,0,cs),
(288,0,ls),
(306,0,o),
(318,14,o),
(315,32,cs)
);
}
);
width = 661;
}
);
unicode = 104;
},
{
glyphname = i;
lastChange = "2024-09-07 22:02:20 +0000";
layers = (
{
layerId = m01;
shapes = (
{
closed = 1;
nodes = (
(114,910,o),
(34,850,o),
(34,777,cs),
(34,707,o),
(114,647,o),
(177,647,cs),
(240,647,o),
(320,707,o),
(320,777,cs),
(320,850,o),
(240,910,o),
(177,910,cs)
);
},
{
closed = 1;
nodes = (
(56,0,ls),
(39,0,o),
(27,13,o),
(29,30,cs),
(38,107,o),
(38,210,o),
(38,286,cs),
(38,363,o),
(38,494,o),
(29,580,cs),
(27,597,o),
(38,610,o),
(55,610,cs),
(298,610,ls),
(315,610,o),
(326,597,o),
(324,580,cs),
(315,497,o),
(315,382,o),
(315,301,cs),
(315,219,o),
(315,111,o),
(324,30,cs),
(326,13,o),
(315,0,o),
(298,0,cs)
);
}
);
width = 353;
}
);
unicode = 105;
},
{
color = 0;
glyphname = j;
lastChange = "2024-09-08 17:55:43 +0000";
layers = (
{
layerId = m01;
shapes = (
{
closed = 1;
nodes = (
(131,910,o),
(51,850,o),
(51,777,cs),
(51,707,o),
(131,647,o),
(194,647,cs),
(257,647,o),
(337,707,o),
(337,777,cs),
(337,850,o),
(257,910,o),
(194,910,cs)
);
},
{
closed = 1;
nodes = (
(70,613,ls),
(54,613,o),
(43,600,o),
(45,584,cs),
(61,447,o),
(53,273,o),
(55,139,cs),
(55,98,o),
(61,40,o),
(76,0,cs),
(109,-88,o),
(131,-140,o),
(127,-234,cs),
(125,-265,o),
(94,-284,o),
(69,-265,cs),
(61,-258,o),
(56,-245,o),
(56,-232,cs),
(54,-176,o),
(50,-125,o),
(43,-76,cs),
(41,-62,o),
(32,-51,o),
(19,-48,cs),
(-52,-32,o),
(-160,-45,o),
(-160,-166,cs),
(-160,-266,o),
(-61,-317,o),
(60,-317,cs),
(232,-317,o),
(332,-269,o),
(332,21,cs),
(335,177,o),
(324,424,o),
(342,585,cs),
(343,601,o),
(332,613,o),
(316,613,cs)
);
}
);
width = 370;
}
);
unicode = 106;
},
{
glyphname = k;
lastChange = "2024-09-07 22:03:01 +0000";
layers = (
{
layerId = m01;
shapes = (
{
closed = 1;
nodes = (
(305,-1,ls),
(323,-1,o),
(335,4,o),
(332,22,cs),
(320,87,o),
(314,196,o),
(315,213,cs),
(316,233,o),
(314,267,o),
(328,282,cs),
(343,300,o),
(379,295,o),
(379,269,cs),
(380,209,o),
(365,151,o),
(377,92,cs),
(392,24,o),
(438,-16,o),
(508,-18,cs),
(559,-17,o),
(627,-8,o),
(669,2,cs),
(683,5,o),
(689,15,o),
(689,30,cs),
(686,96,o),
(685,244,o),
(686,307,cs),
(687,319,o),
(678,318,o),
(662,308,cs),
(627,285,o),
(582,274,o),
(544,274,cs),
(463,274,o),
(427,301,o),
(390,318,c),
(480,307,o),
(687,268,o),
(687,488,cs),
(687,517,o),
(684,560,o),
(677,589,cs),
(673,603,o),
(663,609,o),
(649,609,cs),
(399,609,ls),
(384,609,o),
(374,601,o),
(373,585,cs),
(369,519,o),
(373,452,o),
(380,385,cs),
(382,374,o),
(381,363,o),
(374,354,cs),
(363,342,o),
(340,342,o),
(328,356,cs),
(322,364,o),
(320,373,o),
(319,382,cs),
(314,450,o),
(320,749,o),
(331,857,cs),
(332,874,o),
(324,883,o),
(307,883,cs),
(49,883,ls),
(33,883,o),
(24,874,o),
(25,857,cs),
(36,733,o),
(36,528,o),
(36,412,cs),
(36,296,o),
(36,135,o),
(26,22,cs),
(25,10,o),
(29,2,o),
(37,-1,c)
);
}
);
width = 714;
}
);
unicode = 107;
},
{
glyphname = l;
lastChange = "2024-09-07 22:03:34 +0000";
layers = (
{
layerId = m01;
shapes = (
{
closed = 1;
nodes = (
(54,0,ls),
(38,0,o),
(26,12,o),
(28,29,cs),
(38,141,o),
(38,298,o),
(38,413,cs),
(38,529,o),
(38,732,o),
(28,855,cs),
(26,872,o),
(38,884,o),
(54,884,cs),
(300,884,ls),
(316,884,o),
(328,872,o),
(326,855,cs),
(316,733,o),
(315,545,o),
(315,426,cs),
(315,307,o),
(315,145,o),
(325,29,cs),
(327,12,o),
(315,0,o),
(299,0,cs)
);
}
);
width = 354;
}
);
unicode = 108;
},
{
glyphname = m;
lastChange = "2024-09-08 22:53:05 +0000";
layers = (
{
layerId = m01;
shapes = (
{
closed = 1;
nodes = (
(934,520,o),
(928,630,o),
(769,630,cs),
(658,630,o),
(625,545,o),
(615,486,c),
(605,570,o),
(572,630,o),
(454,630,cs),
(344,630,o),
(309,548,o),
(300,489,c),
(293,587,ls),
(292,600,o),
(281,610,o),
(268,610,cs),
(55,610,ls),
(38,610,o),
(27,597,o),
(29,580,cs),
(38,496,o),
(38,392,o),
(38,309,cs),
(38,226,o),
(38,113,o),
(29,30,cs),
(27,13,o),
(38,0,o),
(55,0,cs),
(285,0,ls),
(303,0,o),
(314,14,o),
(311,32,cs),
(301,92,o),
(295,138,o),
(293,201,cs),
(294,262,o),
(295,314,o),
(302,365,cs),
(304,385,o),
(309,428,o),
(323,457,cs),
(333,475,o),
(346,488,o),
(367,483,cs),
(389,479,o),
(397,455,o),
(390,433,cs),
(347,289,o),
(331,171,o),
(345,22,cs),
(346,9,o),
(356,0,o),
(369,0,cs),
(600,0,ls),
(618,0,o),
(630,14,o),
(627,32,cs),
(616,92,o),
(611,138,o),
(609,201,cs),
(610,262,o),
(610,314,o),
(617,365,cs),
(620,385,o),
(624,428,o),
(639,457,cs),
(648,475,o),
(662,488,o),
(683,483,cs),
(706,478,o),
(711,456,o),
(706,433,cs),
(663,289,o),
(647,171,o),
(661,22,cs),
(662,9,o),
(672,0,o),
(685,0,cs),
(916,0,ls),
(932,0,o),
(943,12,o),
(942,28,cs),
(934,145,o),
(934,303,o),
(934,389,cs)
);
}
);
width = 969;
}
);
unicode = 109;
},
{
glyphname = n;
lastChange = "2024-09-07 22:05:11 +0000";
layers = (
{
layerId = m01;
shapes = (
{
closed = 1;
nodes = (
(618,516,o),
(612,625,o),
(453,625,cs),
(344,625,o),
(309,543,o),
(299,484,c),
(292,589,ls),
(291,602,o),
(281,612,o),
(268,612,cs),
(55,612,ls),
(38,612,o),
(27,599,o),
(29,582,cs),
(38,499,o),
(38,388,o),
(38,306,cs),
(38,223,o),
(38,112,o),
(29,29,cs),
(27,12,o),
(38,-1,o),
(55,-1,cs),
(277,-1,ls),
(295,-1,o),
(306,13,o),
(303,31,cs),
(284,143,o),
(280,257,o),
(294,360,cs),
(297,380,o),
(301,423,o),
(316,451,cs),
(325,470,o),
(339,482,o),
(359,477,cs),
(383,472,o),
(389,450,o),
(382,427,cs),
(340,285,o),
(325,168,o),
(337,22,cs),
(338,8,o),
(349,-1,o),
(362,-1,cs),
(600,-1,ls),
(616,-1,o),
(627,11,o),
(626,27,cs),
(618,143,o),
(618,300,o),
(618,385,cs)
);
}
);
width = 653;
}
);
unicode = 110;
},
{
glyphname = o;
lastChange = "2024-09-04 22:02:47 +0000";
layers = (
{
layerId = m01;
shapes = (
{
closed = 1;
nodes = (
(328,365,o),
(313,237,o),
(332,71,cs),
(333,63,o),
(326,55,o),
(318,55,cs),
(311,55,o),
(305,60,o),
(304,67,cs),
(287,153,o),
(278,205,o),
(276,286,cs),
(276,294,ls),
(277,347,o),
(278,400,o),
(285,452,cs),
(288,472,o),
(292,516,o),
(307,545,cs),
(316,564,o),
(330,576,o),
(352,571,cs),
(361,569,o),
(368,564,o),
(372,557,cs),
(378,547,o),
(378,534,o),
(375,521,cs)
);
},
{
closed = 1;
nodes = (
(5,135,o),
(68,-14,o),
(316,-14,cs),
(562,-14,o),
(623,130,o),
(623,311,cs),
(623,495,o),
(562,627,o),
(316,627,cs),
(69,627,o),
(5,495,o),
(5,315,cs)
);
}
);
width = 628;
}
);
unicode = 111;
},
{
color = 6;
glyphname = p;
lastChange = "2024-09-07 22:13:57 +0000";
layers = (
{
layerId = m01;
shapes = (
{
closed = 1;
nodes = (
(390,420,o),
(372,346,o),
(366,269,cs),
(360,201,o),
(361,131,o),
(370,53,cs),
(372,36,o),
(345,30,o),
(342,49,cs),
(325,135,o),
(314,187,o),
(314,268,cs),
(314,329,o),
(316,382,o),
(323,434,cs),
(326,454,o),
(330,498,o),
(345,527,cs),
(356,550,o),
(377,558,o),
(393,553,cs),
(408,548,o),
(421,531,o),
(413,503,cs)
);
},
{
closed = 1;
nodes = (
(23,-292,o),
(35,-304,o),
(51,-304,cs),
(299,-304,ls),
(315,-304,o),
(327,-292,o),
(325,-275,cs),
(317,-179,o),
(315,-49,o),
(315,42,c),
(322,14,o),
(346,-9,o),
(428,-9,cs),
(568,-9,o),
(673,64,o),
(673,319,cs),
(673,575,o),
(568,622,o),
(429,622,cs),
(324,622,o),
(312,574,o),
(311,539,c),
(295,593,ls),
(292,604,o),
(282,610,o),
(272,610,cs),
(53,610,ls),
(36,610,o),
(24,597,o),
(26,580,cs),
(36,499,o),
(36,393,o),
(36,314,cs),
(36,185,ls),
(36,69,o),
(36,-148,o),
(25,-275,cs)
);
}
);
width = 698;
}
);
unicode = 112;
},
{
color = 6;
glyphname = q;
lastChange = "2024-09-07 22:13:35 +0000";
layers = (
{
layerId = m01;
shapes = (
{
closed = 1;
nodes = (
(277,531,o),
(290,548,o),
(305,553,cs),
(321,558,o),
(342,550,o),
(353,527,cs),
(368,498,o),
(372,454,o),
(375,434,cs),
(382,382,o),
(384,329,o),
(384,268,cs),
(384,187,o),
(373,135,o),
(356,49,cs),
(353,30,o),
(326,36,o),
(328,53,cs),
(337,131,o),
(338,201,o),
(332,269,cs),
(326,346,o),
(308,420,o),
(285,503,cs)
);
},
{
closed = 1;
nodes = (
(662,-148,o),
(662,69,o),
(662,185,cs),
(662,314,ls),
(662,393,o),
(662,499,o),
(672,580,cs),
(674,597,o),
(662,610,o),
(645,610,cs),
(426,610,ls),
(416,610,o),
(406,604,o),
(403,593,cs),
(387,539,l),
(386,574,o),
(374,622,o),
(269,622,cs),
(130,622,o),
(25,575,o),
(25,319,cs),
(25,64,o),
(130,-9,o),
(270,-9,cs),
(352,-9,o),
(376,14,o),
(383,42,c),
(383,-49,o),
(381,-179,o),
(373,-275,cs),
(371,-292,o),
(383,-304,o),
(399,-304,cs),
(647,-304,ls),
(663,-304,o),
(675,-292,o),
(673,-275,cs)
);
}
);
width = 701;
}
);
unicode = 113;
},
{
glyphname = r;
lastChange = "2024-09-08 17:42:36 +0000";
layers = (
{
layerId = m01;
shapes = (
{
closed = 1;
nodes = (
(354,622,o),
(322,534,o),
(311,449,c),
(301,587,ls),
(300,600,o),
(289,610,o),
(276,610,cs),
(51,610,ls),
(34,610,o),
(23,597,o),
(25,580,cs),
(34,497,o),
(34,385,o),
(34,303,cs),
(34,220,o),
(34,112,o),
(25,30,cs),
(23,13,o),
(34,0,o),
(51,0,cs),
(294,0,ls),
(311,0,o),
(322,13,o),
(320,30,cs),
(313,95,o),
(312,170,o),
(311,242,cs),
(311,308,o),
(314,404,o),
(345,468,cs),
(355,490,o),
(375,506,o),
(396,501,cs),
(427,493,o),
(419,459,o),
(401,425,cs),
(358,338,ls),
(336,290,o),
(423,267,o),
(455,264,cs),
(561,253,o),
(626,360,o),
(626,453,cs),
(626,582,o),
(568,622,o),
(470,622,cs)
);
}
);
width = 626;
}
);
unicode = 114;
},
{
glyphname = s;
lastChange = "2024-09-08 17:55:15 +0000";
layers = (
{
layerId = m01;
shapes = (
{
closed = 1;
nodes = (
(549,272,o),
(538,297,o),
(523,318,cs),
(481,380,o),
(404,416,o),
(336,443,cs),
(291,461,o),
(243,476,o),
(197,492,cs),
(187,495,o),
(177,503,o),
(177,513,cs),
(177,526,o),
(188,531,o),
(202,533,cs),
(224,535,o),
(253,529,o),
(263,527,cs),
(348,511,o),
(415,452,o),
(470,388,cs),
(498,356,o),
(531,394,o),
(539,443,cs),
(544,476,o),
(538,517,o),
(512,546,cs),
(458,603,o),
(379,629,o),
(298,629,cs),
(154,629,o),
(34,583,o),
(21,441,cs),
(16,395,o),
(27,347,o),
(51,306,cs),
(59,292,o),
(69,280,o),
(80,269,cs),
(140,209,o),
(216,173,o),
(297,153,cs),
(312,149,o),
(328,145,o),
(343,139,cs),
(354,134,o),
(374,125,o),
(377,112,cs),
(379,97,o),
(366,88,o),
(353,87,cs),
(315,84,o),
(277,95,o),
(243,112,cs),
(207,130,o),
(175,154,o),
(147,181,cs),
(133,194,o),
(121,209,o),
(109,223,cs),
(97,236,o),
(81,248,o),
(64,240,cs),
(38,228,o),
(25,198,o),
(22,166,cs),
(18,127,o),
(29,86,o),
(58,59,cs),
(86,32,o),
(123,15,o),
(160,3,cs),
(195,-7,o),
(231,-13,o),
(268,-14,cs),
(360,-14,o),
(441,2,o),
(498,53,cs),
(549,99,o),
(565,177,o),
(554,243,cs)
);
}
);
width = 577;
}
);
unicode = 115;
},
{
glyphname = t;
lastChange = "2024-09-08 18:10:35 +0000";
layers = (
{
layerId = m01;
shapes = (
{
closed = 1;
nodes = (
(293,863,ls),
(316,873,o),
(338,857,o),
(336,832,cs),
(333,801,o),
(331,769,o),
(330,736,c),
(374,736,ls),
(388,736,o),
(399,726,o),
(399,714,cs),
(399,702,o),
(388,692,o),
(374,692,cs),
(329,692,l),
(326,617,o),
(326,427,o),
(326,366,cs),
(326,265,o),
(326,128,o),
(336,29,cs),
(337,13,o),
(325,0,o),
(309,0,cs),
(66,0,ls),
(50,0,o),
(38,13,o),
(39,29,cs),
(58,212,o),
(53,519,o),
(53,692,c),
(15,692,ls),
(1,692,o),
(-10,703,o),
(-10,717,cs),
(-10,721,ls),
(-10,730,o),
(-4,739,o),
(4,742,cs)
);
}
);
width = 349;
}
);
unicode = 116;
},
{
glyphname = u;
lastChange = "2024-09-07 22:11:06 +0000";
layers = (
{
layerId = m01;
shapes = (
{
closed = 1;
nodes = (
(33,94,o),
(39,-15,o),
(198,-15,cs),
(307,-15,o),
(342,67,o),
(352,126,c),
(359,23,ls),
(360,10,o),
(370,0,o),
(383,0,cs),
(596,0,ls),
(613,0,o),
(624,13,o),
(622,30,cs),
(613,112,o),
(613,222,o),
(613,304,cs),
(613,387,o),
(613,497,o),
(622,580,cs),
(624,597,o),
(613,610,o),
(596,610,cs),
(374,610,ls),
(356,610,o),
(345,596,o),
(348,578,cs),
(358,516,o),
(365,459,o),
(365,406,cs),
(365,354,o),
(364,302,o),
(357,250,cs),
(354,230,o),
(350,187,o),
(335,159,cs),
(322,132,o),
(298,126,o),
(282,135,cs),
(270,143,o),
(262,159,o),
(269,183,cs),
(293,264,o),
(308,337,o),
(315,412,cs),
(319,468,o),
(319,525,o),
(314,587,cs),
(313,601,o),
(302,610,o),
(289,610,cs),
(51,610,ls),
(35,610,o),
(24,598,o),
(25,582,cs),
(33,466,o),
(33,310,o),
(33,225,cs)
);
}
);
width = 647;
}
);
unicode = 117;
},
{
glyphname = v;
lastChange = "2024-09-08 19:06:07 +0000";
layers = (
{
layerId = m01;
shapes = (
{
closed = 1;
nodes = (
(669,573,ls),
(675,593,o),
(662,611,o),
(641,611,cs),
(387,610,ls),
(372,610,o),
(360,599,o),
(361,583,cs),
(364,526,o),
(371,470,o),
(381,419,cs),
(391,372,o),
(405,326,o),
(422,278,cs),
(431,254,o),
(440,230,o),
(451,205,cs),
(460,184,o),
(455,160,o),
(434,153,cs),
(414,145,o),
(399,156,o),
(388,174,cs),
(370,200,o),
(361,243,o),
(356,262,cs),
(343,312,o),
(335,364,o),
(330,416,cs),
(324,475,o),
(324,526,o),
(327,582,cs),
(328,598,o),
(316,610,o),
(301,610,cs),
(31,610,ls),
(6,610,o),
(-7,588,o),
(4,565,cs),
(9,553,o),
(14,542,o),
(18,534,cs),
(25,520,o),
(31,505,o),
(38,489,cs),
(45,473,o),
(51,457,o),
(57,440,cs),
(82,373,o),
(104,305,o),
(127,237,cs),
(152,161,o),
(171,44,o),
(245,1,cs),
(279,-18,o),
(319,-23,o),
(358,-16,cs),
(460,3,o),
(514,93,o),
(545,185,cs),
(578,285,o),
(606,387,o),
(640,487,cs)
);
}
);
width = 670;
}
);
unicode = 118;
},
{
glyphname = w;
lastChange = "2024-09-07 22:08:45 +0000";
layers = (
{
layerId = m01;
shapes = (
{
closed = 1;
nodes = (
(691,610,ls),
(678,610,o),
(668,601,o),
(667,588,cs),
(651,435,o),
(667,314,o),
(710,167,cs),
(718,142,o),
(708,125,o),
(694,118,cs),
(678,111,o),
(657,118,o),
(644,143,cs),
(629,172,o),
(625,215,o),
(622,235,cs),
(606,346,o),
(613,457,o),
(634,578,cs),
(637,596,o),
(625,610,o),
(607,610,cs),
(374,610,ls),
(356,610,o),
(344,596,o),
(347,578,cs),
(370,449,o),
(374,349,o),
(358,235,cs),
(356,215,o),
(351,172,o),
(337,143,cs),
(321,114,o),
(299,110,o),
(284,120,cs),
(272,128,o),
(264,146,o),
(270,167,cs),
(314,314,o),
(330,435,o),
(314,588,cs),
(313,601,o),
(303,610,o),
(290,610,cs),
(52,610,ls),
(37,610,o),
(25,599,o),
(26,583,cs),
(31,458,o),
(40,276,o),
(42,208,cs),
(45,78,o),
(48,-10,o),
(206,-10,cs),
(315,-10,o),
(348,54,o),
(358,112,c),
(367,70,o),
(370,25,o),
(437,-4,cs),
(471,-19,o),
(509,-19,o),
(543,-4,cs),
(608,25,o),
(613,72,o),
(622,112,c),
(632,54,o),
(665,-10,o),
(774,-10,cs),
(932,-10,o),
(935,78,o),
(938,208,cs),
(940,276,o),
(949,458,o),
(954,583,cs),
(955,599,o),
(943,610,o),
(928,610,cs)
);
}
);
width = 980;
}
);
unicode = 119;
},
{
glyphname = x;
lastChange = "2024-09-07 22:12:08 +0000";
layers = (
{
layerId = m01;
shapes = (
{
closed = 1;
nodes = (
(698,147,o),
(690,282,o),
(474,303,c),
(664,319,o),
(695,445,o),
(695,585,cs),
(695,599,o),
(684,610,o),
(670,610,cs),
(406,610,ls),
(392,610,o),
(381,600,o),
(380,585,cs),
(379,517,o),
(385,447,o),
(397,371,cs),
(401,347,o),
(392,327,o),
(368,325,cs),
(347,322,o),
(335,336,o),
(328,356,cs),
(317,386,o),
(319,430,o),
(319,449,cs),
(318,491,o),
(322,536,o),
(327,580,cs),
(329,597,o),
(318,610,o),
(301,610,cs),
(51,610,ls),
(37,610,o),
(26,600,o),
(25,586,cs),
(22,463,o),
(31,325,o),
(251,304,c),
(57,288,o),
(25,164,o),
(25,25,cs),
(25,11,o),
(36,0,o),
(50,0,cs),
(303,0,ls),
(319,0,o),
(331,13,o),
(329,29,cs),
(325,68,o),
(318,134,o),
(319,171,cs),
(319,190,o),
(317,234,o),
(328,264,cs),
(335,284,o),
(347,298,o),
(368,295,cs),
(392,293,o),
(401,273,o),
(397,249,cs),
(384,169,o),
(378,97,o),
(381,24,cs),
(381,10,o),
(392,0,o),
(406,0,cs),
(669,0,ls),
(683,0,o),
(694,10,o),
(695,24,cs)
);
}
);
width = 720;
}
);
unicode = 120;
},
{
color = 0;
glyphname = y;
lastChange = "2024-09-08 22:54:00 +0000";
layers = (
{
annotations = (
{
pos = (470.185,124.76);
type = Text;
}
);
layerId = m01;
shapes = (
{
closed = 1;
nodes = (
(418,612,ls),
(403,612,o),
(392,601,o),
(392,586,cs),
(394,518,o),
(401,457,o),
(414,397,cs),
(429,325,o),
(452,255,o),
(484,179,cs),
(494,156,o),
(488,137,o),
(475,129,cs),
(459,119,o),
(432,125,o),
(413,162,cs),
(381,227,o),
(368,358,o),
(363,390,cs),
(356,461,o),
(357,512,o),
(362,584,cs),
(363,600,o),
(352,612,o),
(336,612,cs),
(41,612,ls),
(17,612,o),
(3,590,o),
(14,568,cs),
(69,453,o),
(111,332,o),
(148,211,cs),
(193,66,o),
(217,-4,o),
(296,-8,cs),
(340,-11,o),
(428,13,o),
(477,42,cs),
(482,45,o),
(486,39,o),
(484,35,cs),
(472,13,o),
(456,-4,o),
(438,-18,cs),
(390,-56,o),
(326,-66,o),
(266,-58,cs),
(235,-54,o),
(205,-45,o),
(177,-33,cs),
(163,-26,o),
(149,-19,o),
(136,-10,cs),
(125,-3,o),
(96,13,o),
(84,8,cs),
(68,0,o),
(53,-16,o),
(41,-35,cs),
(27,-56,o),
(19,-81,o),
(18,-101,cs),
(16,-172,o),
(96,-210,o),
(156,-221,cs),
(207,-230,o),
(287,-230,o),
(333,-218,cs),
(382,-205,o),
(426,-180,o),
(462,-139,cs),
(526,-66,o),
(560,32,o),
(589,124,c),
(712,576,ls),
(717,595,o),
(705,611,o),
(686,611,cs)
);
}
);
width = 693;
}
);
unicode = 121;
},
{
glyphname = z;
lastChange = "2024-09-08 22:56:57 +0000";
layers = (
{
layerId = m01;
shapes = (
{
closed = 1;
nodes = (
(580,0,ls),
(597,0,o),
(608,13,o),
(606,30,cs),
(598,105,o),
(605,205,o),
(605,272,cs),
(605,306,ls),
(605,325,o),
(590,339,o),
(571,333,cs),
(531,321,o),
(485,300,o),
(458,276,cs),
(425,248,o),
(399,215,o),
(377,179,cs),
(359,151,o),
(343,120,o),
(328,87,cs),
(323,76,o),
(314,63,o),
(298,63,cs),
(281,63,o),
(283,83,o),
(289,94,cs),
(301,119,o),
(313,144,o),
(327,167,cs),
(340,191,o),
(355,213,o),
(369,235,cs),
(391,264,o),
(415,291,o),
(441,317,cs),
(478,357,o),
(520,396,o),
(552,441,cs),
(575,474,o),
(594,511,o),
(603,553,c),
(605,582,ls),
(606,598,o),
(595,610,o),
(579,610,cs),
(77,610,ls),
(61,610,o),
(50,597,o),
(51,581,cs),
(54,536,o),
(50,475,o),
(48,411,cs),
(48,392,o),
(64,379,o),
(82,384,cs),
(126,395,o),
(180,416,o),
(207,436,c),
(250,463,o),
(281,500,o),
(306,534,cs),
(309,538,o),
(318,534,o),
(315,528,cs),
(246,409,o),
(109,322,o),
(57,197,c),
(38,158,o),
(27,83,o),
(25,26,cs),
(25,11,o),
(36,0,o),
(51,0,cs)
);
}
);
width = 635;
}
);
unicode = 122;
},
{
glyphname = a.001;
lastChange = "2024-09-08 19:22:00 +0000";
layers = (
{
annotations = (
{
pos = (353.383,467.531);
type = Text;
}
);
layerId = m01;
shapes = (
{
closed = 1;
nodes = (
(280,545,o),
(285,567,o),
(308,572,cs),
(330,577,o),
(344,565,o),
(353,546,cs),
(368,517,o),
(372,473,o),
(375,453,cs),
(382,401,o),
(383,348,o),
(384,287,cs),
(382,206,o),
(373,154,o),
(356,68,cs),
(355,61,o),
(349,56,o),
(342,56,cs),
(334,56,o),
(327,64,o),
(328,72,cs),
(337,150,o),
(338,219,o),
(333,287,cs),
(326,364,o),
(310,439,o),
(285,522,c)
);
},
{
closed = 1;
nodes = (
(408,613,ls),
(394,613,o),
(383,602,o),
(383,588,cs),
(383,568,l),
(376,596,o),
(352,619,o),
(270,619,cs),
(130,619,o),
(25,546,o),
(25,291,cs),
(25,35,o),
(130,-12,o),
(269,-12,cs),
(374,-12,o),
(386,36,o),
(387,71,c),
(403,17,ls),
(406,6,o),
(416,0,o),
(426,0,cs),
(645,0,ls),
(662,0,o),
(674,13,o),
(672,30,cs),
(662,111,o),
(662,217,o),
(662,296,cs),
(662,425,ls),
(662,470,o),
(662,527,o),
(663,587,cs),
(663,602,o),
(652,613,o),
(637,613,cs)
);
}
);
width = 697;
}
);
},
{
color = 0;
glyphname = g.001;
layers = (
{
layerId = m01;
shapes = (
{
closed = 1;
nodes = (
(338,95,o),
(336,89,o),
(332,85,cs),
(328,80,o),
(321,78,o),
(316,81,cs),
(309,85,o),
(309,93,o),
(310,101,cs),
(317,177,o),
(320,253,o),
(309,328,cs),
(301,388,o),
(285,447,o),
(264,504,cs),
(259,518,o),
(254,536,o),
(263,548,cs),
(267,552,o),
(273,556,o),
(279,558,cs),
(296,563,o),
(314,559,o),
(326,546,cs),
(351,518,o),
(354,473,o),
(357,438,cs),
(363,392,o),
(365,345,o),
(365,300,cs),
(363,233,o),
(355,167,o),
(339,101,cs)
);
},
{
closed = 1;
nodes = (
(25,55,o),
(107,-8,o),
(247,-8,cs),
(327,-8,o),
(359,21,o),
(367,48,c),
(370,8,o),
(373,-32,o),
(371,-48,cs),
(368,-78,o),
(369,-84,o),
(356,-112,cs),
(348,-127,o),
(327,-135,o),
(311,-126,cs),
(296,-118,o),
(305,-91,o),
(309,-79,cs),
(311,-73,o),
(314,-61,o),
(315,-55,cs),
(318,-36,o),
(302,-37,o),
(282,-37,cs),
(70,-37,ls),
(60,-37,o),
(52,-43,o),
(50,-53,cs),
(48,-59,o),
(47,-74,o),
(47,-86,cs),
(47,-252,o),
(243,-325,o),
(382,-306,cs),
(503,-290,o),
(624,-215,o),
(638,-84,cs),
(644,-33,o),
(642,19,o),
(640,70,c),
(639,70,l),
(639,314,ls),
(639,396,o),
(639,504,o),
(648,584,cs),
(650,600,o),
(642,610,o),
(625,610,cs),
(407,610,ls),
(393,610,o),
(383,603,o),
(379,589,cs),
(363,539,l),
(362,574,o),
(350,623,o),
(245,623,cs),
(107,623,o),
(25,567,o),
(25,310,cs)
);
}
);
width = 673;
}
);
},
{
glyphname = v.001;
lastChange = "2024-09-08 19:07:21 +0000";
layers = (
{
layerId = m01;
shapes = (
{
closed = 1;
nodes = (
(390,610,l),
(375,610,o),
(364,599,o),
(364,584,c),
(365,519,o),
(372,458,o),
(383,400,c),
(398,323,o),
(422,248,o),
(455,169,c),
(466,146,o),
(460,125,o),
(438,116,c),
(419,109,o),
(403,120,o),
(392,137,c),
(361,184,o),
(337,336,o),
(333,388,c),
(326,457,o),
(327,511,o),
(333,582,c),
(334,598,o),
(323,610,o),
(307,610,c),
(39,610,l),
(17,610,o),
(4,591,o),
(12,570,c),
(39,498,o),
(72,392,o),
(103,289,c),
(133,191,o),
(163,97,o),
(177,20,c),
(179,8,o),
(189,0,o),
(201,0,c),
(454,0,l),
(463,0,o),
(471,5,o),
(475,13,c),
(544,167,o),
(654,338,o),
(677,582,c),
(678,598,o),
(667,610,o),
(651,610,c)
);
}
);
width = 687;
}
);
},
{
glyphname = zero;
lastChange = "2024-04-11 00:09:01 +0000";
layers = (
{
layerId = m01;
shapes = (
{
closed = 1;
nodes = (
(402,573,o),
(380,495,o),
(370,414,cs),
(355,314,o),
(359,213,o),
(368,111,cs),
(370,102,o),
(370,90,o),
(361,85,cs),
(354,81,o),
(344,84,o),
(339,90,cs),
(333,96,o),
(331,105,o),
(329,111,cs),
(307,200,o),
(297,288,o),
(294,377,cs),
(294,438,o),
(297,500,o),
(305,561,cs),
(310,608,o),
(314,668,o),
(346,705,cs),
(363,723,o),
(387,728,o),
(410,721,cs),
(418,719,o),
(426,714,o),
(432,708,c),
(444,692,o),
(437,669,o),
(431,650,cs)
);
},
{
closed = 1;
nodes = (
(138,820,o),
(0,633,o),
(0,399,cs),
(0,167,o),
(138,-20,o),
(357,-20,cs),
(575,-20,o),
(713,167,o),
(713,399,cs),
(713,633,o),
(575,820,o),
(357,820,cs)
);
}
);
width = 713;
}
);
unicode = 48;
},
{
glyphname = one;
lastChange = "2024-04-11 02:38:18 +0000";
layers = (
{
guides = (
{
angle = 0.5455;
pos = (38,472);
},
{
pos = (-98,666);
}
);
layerId = m01;
shapes = (
{
closed = 1;
nodes = (
(87,0,ls),
(71,0,o),
(62,9,o),
(63,26,cs),
(78,212,o),
(73,534,o),
(73,694,c),
(45,694,ls),
(29,694,o),
(20,701,o),
(20,713,cs),
(20,727,o),
(26,739,o),
(39,742,cs),
(330,818,ls),
(365,827,o),
(390,818,o),
(388,798,cs),
(379,762,o),
(373,664,o),
(369,625,cs),
(363,550,o),
(363,377,o),
(363,316,cs),
(363,271,o),
(363,129,o),
(376,27,cs),
(378,10,o),
(370,0,o),
(353,0,cs)
);
}
);
width = 408;
}
);
unicode = 49;
},
{
glyphname = two;
lastChange = "2024-04-11 02:10:53 +0000";
layers = (
{
layerId = m01;
shapes = (
{
closed = 1;
nodes = (
(575,0,ls),
(592,0,o),
(600,10,o),
(597,27,cs),
(592,67,o),
(592,116,o),
(592,154,cs),
(592,190,o),
(589,240,o),
(592,281,cs),
(594,301,o),
(583,309,o),
(565,301,cs),
(490,270,o),
(304,191,o),
(215,166,cs),
(202,163,o),
(190,160,o),
(177,162,cs),
(164,163,o),
(152,172,o),
(149,184,cs),
(145,197,o),
(154,211,o),
(166,219,cs),
(177,226,o),
(192,228,o),
(205,230,cs),
(298,245,o),
(391,269,o),
(471,319,cs),
(511,344,o),
(548,376,o),
(571,417,cs),
(598,465,o),
(606,522,o),
(597,575,cs),
(591,612,o),
(577,648,o),
(558,679,cs),
(537,713,o),
(510,742,o),
(477,764,cs),
(407,812,o),
(321,826,o),
(244,807,cs),
(143,782,o),
(59,699,o),
(33,599,cs),
(23,560,o),
(22,518,o),
(33,479,cs),
(40,456,o),
(49,448,o),
(73,448,cs),
(259,447,ls),
(274,447,o),
(283,455,o),
(285,471,cs),
(288,489,o),
(289,505,o),
(289,508,cs),
(292,560,o),
(283,593,o),
(267,645,cs),
(261,664,o),
(252,695,o),
(278,704,cs),
(324,720,o),
(341,668,o),
(344,634,cs),
(348,605,o),
(348,577,o),
(345,548,cs),
(342,509,o),
(332,470,o),
(310,437,cs),
(284,399,o),
(245,375,o),
(204,356,cs),
(162,335,o),
(117,315,o),
(85,280,cs),
(55,247,o),
(39,203,o),
(33,159,c),
(30,77,ls),
(30,60,o),
(28,43,o),
(26,27,cs),
(24,10,o),
(32,0,o),
(49,0,cs)
);
}
);
width = 626;
}
);
unicode = 50;
},
{
glyphname = three;
lastChange = "2024-04-11 02:09:57 +0000";
layers = (
{
layerId = m01;
shapes = (
{
closed = 1;
nodes = (
(472,418,o),
(498,446,o),
(513,470,cs),
(542,520,o),
(552,587,o),
(544,647,cs),
(542,664,o),
(538,681,o),
(532,697,cs),
(508,766,o),
(444,797,o),
(377,799,cs),
(294,802,o),
(126,800,o),
(52,800,cs),
(35,800,o),
(27,790,o),
(29,774,cs),
(34,733,o),
(34,683,o),
(34,645,cs),
(34,608,o),
(37,554,o),
(34,513,cs),
(33,494,o),
(41,485,o),
(59,489,cs),
(134,504,ls),
(218,518,o),
(299,544,o),
(380,569,cs),
(397,574,o),
(417,578,o),
(435,575,cs),
(460,571,o),
(473,551,o),
(455,536,cs),
(446,527,o),
(432,523,o),
(418,519,cs),
(334,494,o),
(250,477,o),
(163,462,cs),
(154,460,o),
(147,452,o),
(147,441,cs),
(147,361,ls),
(147,350,o),
(154,342,o),
(163,340,cs),
(250,325,o),
(334,308,o),
(418,283,cs),
(432,279,o),
(446,275,o),
(455,266,cs),
(473,251,o),
(460,231,o),
(435,227,cs),
(417,224,o),
(397,228,o),
(380,233,cs),
(299,258,o),
(218,288,o),
(134,302,cs),
(60,314,ls),
(43,317,o),
(33,307,o),
(35,289,cs),
(38,243,o),
(35,175,o),
(35,156,cs),
(35,118,o),
(35,69,o),
(30,29,cs),
(28,12,o),
(36,2,o),
(54,2,cs),
(201,1,o),
(257,-3,o),
(377,1,cs),
(444,3,o),
(508,36,o),
(532,105,cs),
(538,121,o),
(542,138,o),
(544,155,cs),
(552,215,o),
(542,282,o),
(513,332,cs),
(498,357,o),
(472,384,o),
(441,401,c)
);
}
);
width = 572;
}
);
unicode = 51;
},
{
glyphname = four;
lastChange = "2024-04-11 02:13:20 +0000";
layers = (
{
layerId = m01;
shapes = (
{
closed = 1;
nodes = (
(503,430,ls),
(468,430,o),
(454,397,o),
(437,372,cs),
(411,335,o),
(386,298,o),
(358,262,cs),
(345,246,o),
(332,229,o),
(317,214,cs),
(308,206,o),
(284,177,o),
(271,177,c),
(245,161,o),
(182,178,o),
(211,217,cs),
(225,235,o),
(248,247,o),
(265,262,cs),
(286,279,o),
(305,297,o),
(324,316,cs),
(375,370,o),
(429,437,o),
(454,508,cs),
(479,581,o),
(492,691,o),
(496,775,cs),
(497,791,o),
(488,800,o),
(472,800,cs),
(214,800,ls),
(198,800,o),
(190,792,o),
(189,775,cs),
(180,607,o),
(158,445,o),
(129,352,cs),
(97,250,o),
(61,193,o),
(41,171,cs),
(29,158,o),
(25,144,o),
(25,129,cs),
(25,104,o),
(42,86,o),
(65,86,cs),
(428,87,l),
(428,23,ls),
(428,11,o),
(437,0,o),
(448,0,cs),
(661,0,ls),
(677,0,o),
(686,9,o),
(685,26,cs),
(682,84,o),
(682,158,o),
(682,215,cs),
(682,272,o),
(682,346,o),
(685,404,cs),
(686,421,o),
(677,430,o),
(661,430,cs)
);
}
);
width = 710;
}
);
unicode = 52;
},
{
glyphname = five;
lastChange = "2024-04-11 02:45:23 +0000";
layers = (
{
layerId = m01;
shapes = (
{
closed = 1;
nodes = (
(608,438,o),
(587,461,o),
(562,479,cs),
(536,497,o),
(508,511,o),
(478,520,cs),
(439,533,o),
(395,541,o),
(353,545,cs),
(325,549,o),
(295,550,o),
(267,549,cs),
(245,548,o),
(210,539,o),
(196,563,cs),
(192,570,o),
(191,579,o),
(192,588,cs),
(204,639,o),
(290,616,o),
(332,610,cs),
(365,606,o),
(398,600,o),
(431,592,cs),
(480,580,o),
(504,571,o),
(538,558,cs),
(585,539,ls),
(603,531,o),
(615,540,o),
(613,560,cs),
(603,668,o),
(595,709,o),
(600,774,cs),
(602,791,o),
(593,800,o),
(577,800,cs),
(108,800,ls),
(92,800,o),
(83,792,o),
(83,775,cs),
(76,659,o),
(72,599,o),
(50,489,cs),
(45,462,o),
(64,452,o),
(90,454,cs),
(124,459,o),
(170,464,o),
(211,465,cs),
(253,467,o),
(321,471,o),
(344,430,cs),
(366,389,o),
(367,341,o),
(371,296,cs),
(375,253,o),
(379,210,o),
(380,167,cs),
(381,141,o),
(386,115,o),
(380,90,cs),
(370,50,o),
(340,63,o),
(326,94,cs),
(314,121,o),
(315,151,o),
(312,180,cs),
(308,220,o),
(308,261,o),
(311,301,cs),
(314,351,o),
(316,359,o),
(322,395,cs),
(325,413,o),
(316,423,o),
(299,423,cs),
(64,423,ls),
(55,423,o),
(48,418,o),
(46,410,cs),
(21,335,o),
(27,259,o),
(55,190,cs),
(103,72,o),
(217,-18,o),
(352,-18,cs),
(484,-18,o),
(602,56,o),
(651,181,cs),
(681,257,o),
(669,345,o),
(624,413,cs)
);
}
);
width = 688;
}
);
unicode = 53;
},
{
glyphname = six;
lastChange = "2024-04-11 02:32:30 +0000";
layers = (
{
layerId = m01;
shapes = (
{
closed = 1;
nodes = (
(336,77,o),
(323,102,o),
(320,124,cs),
(307,202,o),
(312,282,o),
(329,359,cs),
(332,373,o),
(334,379,o),
(339,394,cs),
(342,403,o),
(348,426,o),
(364,427,cs),
(387,429,o),
(383,401,o),
(381,392,cs),
(377,379,o),
(375,369,o),
(373,357,cs),
(363,281,o),
(372,209,o),
(391,135,c),
(392,128,o),
(395,121,o),
(396,113,cs),
(399,90,o),
(384,69,o),
(360,73,cs)
);
},
{
closed = 1;
nodes = (
(714,374,o),
(688,409,o),
(653,434,cs),
(602,471,o),
(530,486,o),
(469,485,cs),
(436,485,o),
(403,481,o),
(372,472,cs),
(363,469,o),
(330,459,o),
(320,449,c),
(322,486,o),
(325,524,o),
(330,561,cs),
(335,594,o),
(338,627,o),
(349,659,cs),
(357,680,o),
(374,731,o),
(404,722,cs),
(450,710,o),
(417,650,o),
(407,619,c),
(379,535,ls),
(373,517,o),
(382,507,o),
(400,507,cs),
(673,507,ls),
(689,507,o),
(698,516,o),
(698,532,cs),
(689,700,o),
(556,820,o),
(382,820,cs),
(163,820,o),
(25,633,o),
(25,399,cs),
(25,213,o),
(125,20,o),
(322,-15,cs),
(454,-38,o),
(601,21,o),
(672,136,cs),
(705,190,o),
(723,261,o),
(718,326,cs)
);
}
);
width = 758;
}
);
unicode = 54;
},
{
glyphname = seven;
lastChange = "2024-04-11 01:15:44 +0000";
layers = (
{
layerId = m01;
shapes = (
{
closed = 1;
nodes = (
(25,800,ls),
(9,800,o),
(-1,791,o),
(0,774,cs),
(5,667,o),
(5,598,o),
(0,490,cs),
(-1,473,o),
(9,463,o),
(26,465,cs),
(78,472,o),
(116,487,o),
(156,515,cs),
(202,544,o),
(240,601,o),
(272,632,cs),
(312,670,o),
(319,699,o),
(365,707,cs),
(376,708,o),
(387,704,o),
(393,696,cs),
(414,668,o),
(353,642,o),
(334,626,cs),
(309,605,o),
(286,583,o),
(265,558,cs),
(212,498,o),
(172,428,o),
(144,354,cs),
(104,249,o),
(87,137,o),
(85,25,cs),
(85,9,o),
(94,0,o),
(110,0,cs),
(394,0,ls),
(410,0,o),
(419,9,o),
(419,26,cs),
(424,459,o),
(548,670,o),
(586,723,cs),
(593,733,o),
(597,741,o),
(597,753,cs),
(597,775,ls),
(597,791,o),
(588,800,o),
(572,800,cs)
);
}
);
width = 527;
}
);
unicode = 55;
},
{
glyphname = eight;
lastChange = "2024-04-11 02:22:13 +0000";
layers = (
{
layerId = m01;
shapes = (
{
closed = 1;
nodes = (
(25,72,o),
(221,-19,o),
(371,-19,c),
(539,-19,o),
(715,53,o),
(715,253,c),
(715,347,o),
(653,430,o),
(560,479,c),
(605,515,o),
(632,564,o),
(632,618,c),
(632,729,o),
(514,818,o),
(371,818,c),
(227,818,o),
(107,729,o),
(107,618,c),
(107,564,o),
(136,515,o),
(181,479,c),
(88,431,o),
(25,366,o),
(25,272,c)
);
},
{
closed = 1;
nodes = (
(323,696,o),
(352,710,o),
(376,700,c),
(401,690,o),
(403,660,o),
(406,636,c),
(409,611,o),
(409,581,o),
(404,552,c),
(401,524,o),
(395,499,o),
(386,479,c),
(385,473,o),
(380,461,o),
(363,461,c),
(359,461,o),
(356,462,o),
(352,464,c),
(348,467,o),
(346,475,o),
(348,483,c),
(352,518,o),
(357,515,o),
(359,551,c),
(360,582,o),
(354,606,o),
(346,631,c),
(345,639,o),
(336,659,o),
(333,668,c)
);
},
{
closed = 1;
nodes = (
(351,78,o),
(338,103,o),
(335,125,cs),
(322,203,o),
(327,283,o),
(344,360,cs),
(347,374,o),
(349,380,o),
(354,395,cs),
(357,404,o),
(363,427,o),
(379,428,cs),
(402,430,o),
(398,402,o),
(396,393,cs),
(392,380,o),
(390,370,o),
(388,358,cs),
(378,282,o),
(387,210,o),
(406,136,c),
(407,129,o),
(410,122,o),
(411,114,cs),
(414,91,o),
(399,70,o),
(375,74,cs)
);
}
);
width = 740;
}
);
unicode = 56;
},
{
glyphname = nine;
lastChange = "2024-04-11 02:32:43 +0000";
layers = (
{
layerId = m01;
shapes = (
{
closed = 1;
nodes = (
(401,728,o),
(414,703,o),
(417,681,cs),
(430,603,o),
(425,523,o),
(408,446,cs),
(405,432,o),
(403,426,o),
(398,411,cs),
(395,402,o),
(389,379,o),
(373,378,cs),
(350,376,o),
(354,404,o),
(356,413,cs),
(360,426,o),
(362,436,o),
(364,448,cs),
(374,524,o),
(365,596,o),
(346,670,c),
(345,677,o),
(342,684,o),
(341,692,cs),
(338,715,o),
(353,736,o),
(377,732,cs)
);
},
{
closed = 1;
nodes = (
(44,436,o),
(67,398,o),
(104,371,cs),
(155,334,o),
(207,319,o),
(268,320,cs),
(301,320,o),
(334,324,o),
(365,333,cs),
(374,336,o),
(407,346,o),
(417,356,c),
(415,319,o),
(412,281,o),
(407,244,cs),
(402,211,o),
(399,178,o),
(388,146,cs),
(380,125,o),
(363,74,o),
(333,83,cs),
(287,95,o),
(325,155,o),
(335,186,cs),
(363,270,ls),
(369,288,o),
(360,298,o),
(342,298,cs),
(64,298,ls),
(48,298,o),
(39,289,o),
(39,273,cs),
(48,105,o),
(181,-15,o),
(355,-15,cs),
(574,-15,o),
(712,172,o),
(712,406,cs),
(712,592,o),
(612,785,o),
(415,820,cs),
(283,843,o),
(136,804,o),
(65,689,cs),
(29,629,o),
(15,549,o),
(32,479,cs)
);
}
);
width = 737;
}
);
unicode = 57;
},
{
glyphname = period;
lastChange = "2024-04-09 22:24:08 +0000";
layers = (
{
layerId = m01;
shapes = (
{
closed = 1;
nodes = (
(97,214,o),
(25,160,o),
(25,94,cs),
(25,31,o),
(97,-23,o),
(154,-23,cs),
(210,-23,o),
(282,31,o),
(282,94,cs),
(282,160,o),
(210,214,o),
(154,214,cs)
);
}
);
width = 307;
}
);
unicode = 46;
},
{
glyphname = comma;
lastChange = "2024-02-02 02:14:40 +0000";
layers = (
{
layerId = m01;
shapes = (
{
closed = 1;
nodes = (
(196,171,ls),
(221,171,o),
(244,159,o),
(245,139,cs),
(253,66,o),
(186,-57,o),
(104,-101,cs),
(66,-121,o),
(25,-94,o),
(25,-57,cs),
(25,127,ls),
(25,152,o),
(49,171,o),
(79,171,cs)
);
}
);
width = 271;
}
);
unicode = 44;
},
{
glyphname = semicolon;
lastChange = "2024-04-09 22:25:13 +0000";
layers = (
{
layerId = m01;
shapes = (
{
closed = 1;
nodes = (
(215,171,ls),
(239,171,o),
(262,159,o),
(264,139,cs),
(271,66,o),
(205,-77,o),
(122,-121,cs),
(85,-141,o),
(43,-114,o),
(43,-77,cs),
(43,127,ls),
(43,152,o),
(67,171,o),
(97,171,cs)
);
},
{
closed = 1;
nodes = (
(97,630,o),
(25,576,o),
(25,510,cs),
(25,447,o),
(97,393,o),
(154,393,cs),
(210,393,o),
(282,447,o),
(282,510,cs),
(282,576,o),
(210,630,o),
(154,630,cs)
);
}
);
width = 307;
}
);
unicode = 59;
},
{
glyphname = exclam;
lastChange = "2024-04-11 02:54:48 +0000";
layers = (
{
layerId = m01;
shapes = (
{
closed = 1;
nodes = (
(52,257,ls),
(35,257,o),
(27,266,o),
(29,280,cs),
(38,350,o),
(38,441,o),
(38,510,c),
(38,580,o),
(38,701,o),
(28,777,cs),
(27,791,o),
(35,800,o),
(52,800,cs),
(302,800,ls),
(319,800,o),
(327,791,o),
(325,777,cs),
(316,702,o),
(315,590,o),
(315,518,c),
(315,448,o),
(315,351,o),
(324,280,cs),
(326,266,o),
(318,257,o),
(301,257,cs)
);
},
{
closed = 1;
nodes = (
(121,214,o),
(49,160,o),
(49,94,cs),
(49,31,o),
(121,-23,o),
(178,-23,cs),
(234,-23,o),
(306,31,o),
(306,94,cs),
(306,160,o),
(234,214,o),
(178,214,cs)
);
}
);
width = 354;
}
);
unicode = 33;
},
{
glyphname = question;
lastChange = "2024-04-11 02:59:20 +0000";
layers = (
{
layerId = m01;
shapes = (
{
pos = (163,0);
ref = period;
},
{
closed = 1;
nodes = (
(596,646,o),
(581,680,o),
(555,710,cs),
(519,750,o),
(468,780,o),
(417,797,cs),
(350,821,o),
(274,820,o),
(206,796,cs),
(133,771,o),
(71,721,o),
(40,647,cs),
(24,608,o),
(19,564,o),
(32,523,cs),
(39,503,o),
(48,496,o),
(72,496,cs),
(258,495,ls),
(273,495,o),
(282,502,o),
(284,516,cs),
(287,532,o),
(288,546,o),
(288,548,cs),
(291,593,o),
(282,622,o),
(266,667,cs),
(260,684,o),
(251,710,o),
(277,718,cs),
(358,743,o),
(349,601,o),
(341,560,cs),
(335,528,o),
(309,504,o),
(289,480,cs),
(243,427,o),
(223,396,o),
(215,327,cs),
(211,289,ls),
(209,273,o),
(218,263,o),
(234,263,cs),
(429,263,ls),
(445,263,o),
(455,273,o),
(454,289,cs),
(451,335,ls),
(449,373,o),
(468,381,o),
(497,401,cs),
(568,449,o),
(610,532,o),
(600,611,cs)
);
}
);
width = 626;
}
);
unicode = 63;
},
{
glyphname = hyphen;
lastChange = "2024-04-11 02:43:12 +0000";
layers = (
{
layerId = m01;
shapes = (
{
closed = 1;
nodes = (
(25,493,ls),
(25,508,o),
(30,515,o),
(40,513,cs),
(83,505,o),
(142,505,o),
(186,505,c),
(230,505,o),
(304,505,o),
(352,514,cs),
(362,515,o),
(367,508,o),
(367,493,cs),
(368,272,ls),
(368,257,o),
(363,250,o),
(354,252,cs),
(306,260,o),
(241,260,o),
(194,260,c),
(148,260,o),
(85,260,o),
(40,252,cs),
(30,250,o),
(25,257,o),
(25,272,cs)
);
}
);
width = 393;
}
);
unicode = 45;
},
{
glyphname = parenleft;
lastChange = "2024-03-11 23:29:56 +0000";
layers = (
{
layerId = m01;
shapes = (
{
closed = 1;
nodes = (
(394,850,ls),
(413,850,o),
(425,835,o),
(418,819,cs),
(362,678,o),
(305,529,o),
(305,349,cs),
(305,169,o),
(362,20,o),
(418,-121,cs),
(425,-137,o),
(413,-152,o),
(394,-152,cs),
(268,-152,ls),
(260,-152,o),
(251,-149,o),
(243,-143,cs),
(111,-23,o),
(25,141,o),
(25,349,cs),
(25,557,o),
(111,721,o),
(243,841,cs),
(251,847,o),
(260,850,o),
(268,850,cs)
);
}
);
width = 445;
}
);
unicode = 40;
},
{
glyphname = parenright;
lastChange = "2024-03-11 23:30:02 +0000";
layers = (
{
layerId = m01;
shapes = (
{
closed = 1;
nodes = (
(185,850,o),
(194,847,o),
(202,841,cs),
(334,721,o),
(421,557,o),
(421,349,cs),
(421,141,o),
(334,-23,o),
(202,-143,cs),
(194,-149,o),
(185,-152,o),
(177,-152,cs),
(51,-152,ls),
(32,-152,o),
(21,-137,o),
(27,-121,cs),
(83,20,o),
(140,169,o),
(140,349,cs),
(140,529,o),
(83,678,o),
(27,819,cs),
(21,835,o),
(32,850,o),
(51,850,cs),
(177,850,ls)
);
}
);
width = 445;
}
);
unicode = 41;
},
{
glyphname = at;
lastChange = "2024-04-09 22:56:59 +0000";
layers = (
{
layerId = m01;
shapes = (
{
closed = 1;
nodes = (
(484,143,o),
(481,125,o),
(464,132,cs),
(439,140,o),
(431,172,o),
(428,196,cs),
(424,229,o),
(428,263,o),
(442,293,cs),
(465,345,o),
(511,388,o),
(561,413,cs),
(576,421,o),
(576,414,o),
(572,406,cs),
(565,395,o),
(556,384,o),
(548,373,cs),
(503,310,o),
(459,243,o),
(480,161,cs)
);
},
{
closed = 1;
nodes = (
(259,-135,o),
(66,82,o),
(66,350,cs),
(66,487,o),
(127,628,o),
(186,694,cs),
(264,781,o),
(372,843,o),
(496,843,cs),
(645,843,o),
(729,767,o),
(797,694,cs),
(879,600,o),
(923,485,o),
(923,369,cs),
(923,238,o),
(865,111,o),
(793,111,cs),
(765,111,o),
(746,133,o),
(746,163,cs),
(744,447,ls),
(744,588,o),
(616,656,o),
(482,672,cs),
(388,683,o),
(290,661,o),
(234,605,cs),
(197,568,o),
(173,532,o),
(190,468,cs),
(200,432,o),
(224,408,o),
(265,416,cs),
(302,424,o),
(336,442,o),
(371,458,cs),
(408,474,o),
(447,488,o),
(488,496,cs),
(503,498,o),
(565,514,o),
(571,489,cs),
(577,466,o),
(526,457,o),
(512,454,cs),
(483,447,o),
(453,443,o),
(422,434,cs),
(342,409,o),
(259,370,o),
(203,305,cs),
(161,254,o),
(153,180,o),
(180,121,cs),
(215,48,o),
(298,16,o),
(377,27,cs),
(415,32,o),
(452,59,o),
(477,91,cs),
(492,112,l),
(524,55,o),
(592,25,o),
(667,25,cs),
(745,25,o),
(821,57,o),
(874,124,c),
(802,-30,o),
(660,-135,o),
(496,-135,cs)
);
},
{
closed = 1;
nodes = (
(918,619,o),
(827,721,cs),
(742,816,o),
(624,876,o),
(496,876,cs),
(367,876,o),
(250,816,o),
(163,721,cs),
(72,619,o),
(25,485,o),
(25,350,cs),
(25,60,o),
(237,-176,o),
(496,-176,cs),
(760,-176,o),
(964,67,o),
(964,350,cs),
(964,487,o)
);
}
);
width = 989;
}
);
unicode = 64;
},
{
glyphname = ampersand;
lastChange = "2024-04-11 02:41:59 +0000";
layers = (
{
layerId = m01;
shapes = (
{
closed = 1;
nodes = (
(431,96,o),
(411,95,o),
(394,106,cs),
(360,129,o),
(344,177,o),
(330,214,cs),
(310,262,o),
(295,312,o),
(281,361,cs),
(264,434,o),
(253,508,o),
(252,585,cs),
(252,600,o),
(256,618,o),
(271,613,cs),
(280,611,o),
(281,602,o),
(282,594,cs),
(293,508,o),
(316,426,o),
(350,348,cs),
(375,284,o),
(409,225,o),
(449,169,c),
(467,140,o),
(471,119,o),
(448,107,cs)
);
},
{
closed = 1;
nodes = (
(230,708,o),
(250,724,o),
(266,723,cs),
(290,722,o),
(310,704,o),
(327,690,cs),
(349,672,o),
(369,653,o),
(387,633,cs),
(413,603,o),
(436,571,o),
(454,534,cs),
(462,519,o),
(447,507,o),
(438,521,cs),
(411,558,o),
(381,592,o),
(345,620,cs),
(316,643,o),
(283,661,o),
(248,677,cs),
(239,681,o),
(230,686,o),
(230,696,cs)
);
},
{
closed = 1;
nodes = (
(727,-1,l),
(746,-1,o),
(754,12,o),
(746,29,cs),
(671,181,ls),
(670,184,o),
(670,188,o),
(674,189,cs),
(752,215,o),
(839,360,o),
(867,451,cs),
(872,468,o),
(862,479,o),
(845,479,cs),
(630,479,ls),
(614,479,o),
(605,470,o),
(605,453,cs),
(605,390,o),
(604,332,o),
(603,336,c),
(545,480,l),
(584,520,ls),
(612,548,o),
(620,583,o),
(620,619,cs),
(620,734,o),
(529,820,o),
(336,820,cs),
(196,820,o),
(51,739,o),
(51,619,cs),
(51,561,o),
(86,505,o),
(140,467,c),
(60,418,o),
(10,342,o),
(10,256,cs),
(11,75,o),
(151,-20,o),
(295,-19,cs),
(348,-19,o),
(410,3,o),
(447,37,c),
(455,19,ls),
(461,7,o),
(471,0,o),
(485,0,cs)
);
}
);
width = 897;
}
);
unicode = 38;
},
{
glyphname = dollar;
lastChange = "2024-04-09 23:05:16 +0000";
layers = (
{
layerId = m01;
shapes = (
{
closed = 1;
nodes = (
(567,295,o),
(555,368,o),
(510,435,cs),
(473,489,o),
(431,518,o),
(382,539,cs),
(330,562,o),
(270,576,o),
(204,603,cs),
(190,609,o),
(184,616,o),
(184,625,cs),
(184,637,o),
(195,642,o),
(209,644,cs),
(232,647,o),
(264,640,o),
(279,637,cs),
(366,620,o),
(428,563,o),
(483,497,cs),
(487,493,o),
(487,494,o),
(493,494,cs),
(562,494,o),
(562,610,o),
(524,659,cs),
(470,726,o),
(373,741,o),
(291,741,cs),
(191,741,o),
(81,710,o),
(40,609,cs),
(-5,498,o),
(53,377,o),
(151,318,cs),
(185,297,o),
(222,281,o),
(260,269,cs),
(281,262,o),
(303,257,o),
(325,250,cs),
(342,244,o),
(362,241,o),
(377,229,cs),
(397,213,o),
(388,191,o),
(363,189,cs),
(325,186,o),
(286,197,o),
(251,215,cs),
(195,244,o),
(151,291,o),
(103,332,cs),
(70,360,o),
(36,307,o),
(29,278,cs),
(20,244,o),
(26,202,o),
(49,174,cs),
(104,108,o),
(200,93,o),
(281,93,cs),
(378,93,o),
(482,119,o),
(527,211,cs)
);
},
{
closed = 1;
nodes = (
(263,800,l),
(263,0,l),
(314,0,l),
(314,800,l)
);
}
);
width = 576;
}
);
unicode = 36;
},
{
glyphname = euro;
lastChange = "2024-04-11 02:40:08 +0000";
layers = (
{
layerId = m01;
shapes = (
{
closed = 1;
nodes = (
(274,496,l),
(198,496,o),
(122,496,o),
(46,496,cs),
(32,496,o),
(25,490,o),
(25,482,cs),
(25,459,ls),
(25,451,o),
(32,445,o),
(46,445,cs),
(274,445,l)
);
},
{
closed = 1;
nodes = (
(274,396,l),
(198,396,o),
(122,396,o),
(46,396,cs),
(32,396,o),
(25,390,o),
(25,382,cs),
(25,359,ls),
(25,351,o),
(32,345,o),
(46,345,cs),
(274,345,l)
);
},
{
closed = 1;
nodes = (
(493,411,ls),
(478,411,o),
(468,403,o),
(466,388,cs),
(460,324,o),
(463,260,o),
(469,198,cs),
(470,190,o),
(470,182,o),
(463,178,cs),
(458,175,o),
(451,177,o),
(447,182,cs),
(443,186,o),
(441,192,o),
(440,198,cs),
(424,262,o),
(417,326,o),
(415,391,cs),
(415,435,o),
(417,480,o),
(422,525,cs),
(426,559,o),
(429,602,o),
(453,630,cs),
(465,643,o),
(482,647,o),
(499,642,cs),
(504,640,o),
(510,636,o),
(515,632,c),
(523,620,o),
(518,603,o),
(514,589,c),
(502,559,o),
(492,527,o),
(484,495,cs),
(480,477,o),
(489,467,o),
(506,467,cs),
(743,467,ls),
(760,467,o),
(769,477,o),
(765,495,cs),
(731,621,o),
(620,713,o),
(461,713,cs),
(267,713,o),
(145,577,o),
(145,407,cs),
(145,238,o),
(267,106,o),
(461,106,cs),
(645,106,o),
(764,229,o),
(776,386,cs),
(777,402,o),
(768,411,o),
(752,411,cs)
);
}
